<?xml version="1.0" encoding="UTF-8" standalone="no"?>
<!-- Created with Inkscape (http://www.inkscape.org/) -->

<svg
   width="342.82419mm"
   height="143.25261mm"
   viewBox="0 0 342.82419 143.25261"
   version="1.1"
   id="svg187"
   inkscape:version="1.2.1 (9c6d41e410, 2022-07-14)"
   sodipodi:docname="controls.svg"
   inkscape:export-filename="controls.png"
   inkscape:export-xdpi="96"
   inkscape:export-ydpi="96"
   xmlns:inkscape="http://www.inkscape.org/namespaces/inkscape"
   xmlns:sodipodi="http://sodipodi.sourceforge.net/DTD/sodipodi-0.dtd"
   xmlns="http://www.w3.org/2000/svg"
   xmlns:svg="http://www.w3.org/2000/svg">
  <sodipodi:namedview
     id="namedview189"
     pagecolor="#ffffff"
     bordercolor="#000000"
     borderopacity="0.25"
     inkscape:showpageshadow="2"
     inkscape:pageopacity="0.0"
     inkscape:pagecheckerboard="0"
     inkscape:deskcolor="#d1d1d1"
     inkscape:document-units="mm"
     showgrid="false"
     inkscape:zoom="1.829812"
     inkscape:cx="744.33876"
     inkscape:cy="263.96154"
     inkscape:window-width="3840"
     inkscape:window-height="2126"
     inkscape:window-x="-11"
     inkscape:window-y="-11"
     inkscape:window-maximized="1"
     inkscape:current-layer="layer1" />
  <defs
     id="defs184">
    <rect
       x="42.080826"
       y="96.731247"
       width="265.60107"
       height="46.452858"
       id="rect496" />
    <rect
       x="537.21368"
       y="507.70242"
       width="260.13602"
       height="44.266842"
       id="rect369" />
    <clipPath
       id="clip0_901_49">
      <rect
         width="2180"
         height="2620"
         fill="#ffffff"
         id="rect71"
         x="0"
         y="0" />
    </clipPath>
    <clipPath
       id="clip0_901_50">
      <rect
         width="2180"
         height="2620"
         fill="#ffffff"
         id="rect45"
         x="0"
         y="0" />
    </clipPath>
    <rect
       x="537.21368"
       y="507.70242"
       width="260.13602"
       height="44.266842"
       id="rect369-6" />
    <rect
       x="537.21368"
       y="507.70242"
       width="260.13602"
       height="44.266842"
       id="rect369-6-5" />
  </defs>
  <g
     inkscape:label="Layer 1"
     inkscape:groupmode="layer"
     id="layer1"
     transform="translate(-11.970133,-34.235724)">
    <g
       clip-path="url(#clip0_901_49)"
       id="g69"
       transform="matrix(0.05342782,0,0,0.05342782,59.942041,34.235724)">
      <path
         d="m 1054.29,0.0202409 c -4.63,-0.0517484 -9.26,-8.94e-5 -13.89,0.1073881 C 910.676,3.53426 780.28,72.5986 711.857,129.537 c -39.556,32.917 -68.189,83.387 -87.145,125.616 -18.956,42.229 -28.173,76.433 -28.173,76.433 l 0.761,0.203 c -8.41,18.192 -13.663,39.006 -15.997,61.77 -5.106,49.797 3.327,109.075 21.984,171.665 36.615,122.833 112.749,258.459 205.615,358.949 -50.429,10.81 -87.365,33.169 -115.216,57.93 -12.863,11.435 -25.296,24.027 -34.487,44.667 -9.191,20.64 -15.156,49.12 -16.168,92.7 -1.214,52.25 -21.911,134.08 -72.437,201.03 C 486.547,1431.87 314.76,1622.9 205.072,1808.31 150.255,1900.97 99.0608,2008.45 61.5184,2105.36 23.976,2202.27 0,2288.23 0,2339.38 c 0,101.36 62.9441,207.77 145.961,245.69 81.494,37.21 149.979,47.51 218.04,17.07 18.044,-8.07 44.752,-30.49 77.041,-61.33 32.291,-30.83 69.722,-70.03 107.219,-111.22 74.994,-82.37 150.235,-172.61 185.223,-219.79 67.729,-91.34 198.317,-291.15 206.166,-303.17 14.086,7.98 28.093,15.38 40.87,21.4 17.824,8.39 33,14.25 43.67,15.45 5.25,0.59 9.21,-2.67 11.19,-5.4 1.98,-2.74 2.76,-5.5 2.76,-5.5 l 0.06,-0.11 v -0.12 c 0,0 14.87,-61.28 51.77,-113.6 9.31,-13.21 30.45,-34.85 49.37,-53.75 9.46,-9.45 18.38,-18.26 25.12,-25.21 3.38,-3.48 6.22,-6.46 8.34,-8.9 1.05,-1.23 1.92,-2.3 2.64,-3.29 0.71,-0.99 1.3,-1.72 1.76,-3.24 0.97,-3.25 -0.23,-5.18 -1.32,-7.31 -1.09,-2.14 -2.61,-4.4 -4.44,-6.88 -3.57,-4.84 -8.36,-10.39 -13.22,-15.75 7.27,-2.44 22.25,-7.22 54.32,-16.39 24.23,-6.94 36.56,-5.05 50.54,-0.74 13.97,4.31 29.61,11.46 57.35,14.34 0.28,0.04 0.58,0.04 0.87,0.07 32.78,21.01 74.06,31.03 136.31,46.86 63.9,16.25 120.97,15.76 154.05,-5.61 16.11,-10.41 23.15,-20.28 25.96,-30.24 2.8,-9.96 1.68,-19.18 3.1,-29.12 1.22,-8.53 11.02,-26.52 20.58,-41.32 7.73,-11.95 13.93,-20.46 16.53,-23.97 32.19,-13.56 64.78,-28.5 97.27,-44.63 17.03,-6.48 32.39,-14.2 45.91,-23.22 l 0.06,0.08 2.65,-1.91 c 0.13,-0.09 0.28,-0.17 0.41,-0.26 2.22,-1.21 90.61,-49.58 178.89,-127.74 89.41,-79.15 178.99,-188.89 176.95,-311.71 C 2175.93,856.701 2093.8,678.18 1841.47,398.382 1588.45,117.806 1241.35,22.1519 1095.78,2.92263 1082.04,1.10746 1068.18,0.17243 1054.29,0.0231564 Z M 1054.2,8.79787 c 13.56,0.1234 27.07,1.0249 40.44,2.79113 143.61,18.9709 489.33,114.318 740.35,392.669 251.72,279.128 332.23,454.486 336.23,694.802 1.98,118.44 -85.41,226.59 -173.98,305.01 -60.39,53.46 -120.32,92.48 -152.8,112.22 2.63,-3.58 5.33,-7.47 8.13,-12.05 14.91,-24.31 31.66,-63.48 39.54,-123.03 15.92,-120.27 -53.34,-318.67 -377.41,-684.399 -162.35,-183.212 -351.02,-306.68 -513.72,-374.919 -81.344,-34.119 -156.188,-54.453 -218.183,-61.474 -30.998,-3.51 -58.809,-3.743 -82.649,-0.614 -23.839,3.129 -43.707,9.615 -58.847,19.6 -10.212,6.735 -19.001,14.866 -26.534,24.14 4.444,-12.522 10.35,-27.911 17.93,-44.798 18.668,-41.588 47.011,-91.031 84.769,-122.451 C 786.73,78.6561 923.105,7.59492 1054.2,8.79787 Z M 738.735,266.428 c 13.446,0.079 27.835,0.965 43.06,2.69 60.901,6.897 135.086,26.963 215.811,60.821 161.454,67.717 349.134,190.534 510.544,372.688 323.44,365.013 390.59,561.713 375.27,677.433 -7.74,58.45 -24.05,96.36 -38.3,119.6 -12.92,21.07 -21.65,27.13 -23.57,28.58 l -56.42,-60.2 c 0.62,-0.27 1.18,-0.48 1.86,-0.8 5.24,-2.44 12.46,-6.65 20.69,-13.77 16.46,-14.25 36.91,-40.08 53.98,-86.39 16.66,-45.24 11.59,-109.18 -37.81,-207.05 -49.4,-97.88 -143.22,-230.131 -305.24,-412.971 -153,-172.668 -323.56,-291.2 -473.09,-359.882 -0.16,-0.46 -0.34,-0.917 -0.5,-1.377 l -1.42,0.498 c -8.45,-3.859 -16.84,-7.592 -25.139,-11.133 -77.881,-33.22 -149.189,-52.479 -208.303,-58.357 -59.113,-5.878 -106.17,1.45 -135.531,22.686 -32.406,23.439 -46.747,60.612 -47.463,105.192 -0.716,44.58 11.874,96.9 33.283,152.477 41.699,108.249 117.007,228.818 194.868,326.786 l -15.741,-1.26 C 725.873,822.926 648.402,685.91 611.684,562.729 c -18.43,-61.826 -26.592,-120.145 -21.658,-168.26 4.934,-48.115 22.727,-85.747 56.09,-107.749 20.443,-13.483 52.282,-20.525 92.619,-20.292 z m 19.375,57.237 c 9.925,0.147 20.341,0.763 31.202,1.843 57.929,5.76 128.486,24.769 205.716,57.711 7.782,3.32 15.652,6.822 23.562,10.426 67.7,187.246 223.97,353.685 378.33,480.266 80.21,65.774 159.74,120.632 226.31,162.099 l -18.47,22.69 c -61.42,-38.66 -133.12,-73.605 -212.49,-101.895 -63.98,-22.811 -129.81,-40.062 -194.34,-50.963 -14.27,-6.833 -29.83,-12.817 -46.43,-17.501 -38.25,-10.79 -74.41,-12.937 -102.34,-7.51 -12.54,2.436 -23.55,6.455 -32.27,12.043 -66.107,2.546 -123.257,14.039 -168.537,33.431 C 768.789,827.599 690.918,703.854 648.609,594.022 627.451,539.096 615.221,487.643 615.908,444.834 c 0.688,-42.81 13.958,-76.658 43.821,-98.257 21.522,-15.567 55.373,-23.556 98.381,-22.912 z m 271.72,75.166 c 146.43,68.673 312.77,185.363 462.24,354.044 130.42,147.179 216.36,261.365 270.37,350.795 C 1699.35,1074.42 1551.66,989.5 1402.46,867.155 1251.04,742.983 1098.2,580.294 1029.83,398.831 Z m 54.42,488.11 c 19.95,0.247 42.34,3.473 65.55,10.022 16.36,4.615 31.65,10.543 45.59,17.268 25.3,12.227 45.34,26.954 58.21,41.781 12.92,14.896 18.38,29.573 15.96,41.905 -3.36,16.093 -20.05,27.893 -46.12,32.953 -12.87,2.5 -27.86,3.28 -44.16,2.22 -0.47,-0.04 -0.94,-0.04 -1.41,-0.08 h -0.04 c -3.56,-0.25 -7.19,-0.63 -10.86,-1.06 -0.65,-0.08 -1.29,-0.13 -1.95,-0.22 -3.39,-0.42 -6.83,-0.97 -10.3,-1.55 -0.65,-0.11 -1.29,-0.2 -1.94,-0.31 -0.51,-0.09 -1.02,-0.17 -1.53,-0.26 -3.11,-0.57 -6.27,-1.23 -9.44,-1.92 -0.92,-0.21 -1.84,-0.37 -2.76,-0.58 -0.49,-0.11 -0.97,-0.23 -1.46,-0.34 -3.19,-0.75 -6.41,-1.59 -9.64,-2.47 -0.88,-0.24 -1.75,-0.42 -2.63,-0.67 -4.16,-1.18 -8.26,-2.47 -12.33,-3.82 -1.06,-0.35 -2.11,-0.71 -3.17,-1.07 -3.83,-1.32 -7.63,-2.7 -11.36,-4.16 -0.98,-0.39 -1.93,-0.8 -2.9,-1.2 -2.81,-1.14 -5.56,-2.32 -8.29,-3.53 -1.55,-0.69 -3.09,-1.37 -4.6,-2.08 -2.62,-1.23 -5.2,-2.49 -7.74,-3.78 -2.18,-1.11 -4.31,-2.25 -6.43,-3.41 -1.51,-0.821 -3,-1.656 -4.47,-2.501 -1.7,-0.975 -3.39,-1.953 -5.03,-2.954 -0.32,-0.195 -0.64,-0.394 -0.96,-0.591 -6.48,-3.992 -12.5,-8.175 -18,-12.486 -0.93,-0.726 -1.84,-1.452 -2.73,-2.184 -1.36,-1.114 -2.72,-2.231 -4.01,-3.36 -2.04,-1.787 -3.99,-3.583 -5.82,-5.387 -1.5,-1.474 -2.95,-2.951 -4.32,-4.439 -0.35,-0.382 -0.67,-0.767 -1.02,-1.151 -0.93,-1.044 -1.82,-2.092 -2.69,-3.141 -0.51,-0.619 -1.01,-1.24 -1.49,-1.859 -0.79,-1.005 -1.54,-2.015 -2.26,-3.023 -8.73,-12.181 -12.52,-24.165 -10.55,-34.652 3.23,-16.23 19.97,-28.127 46.19,-33.222 9.85,-1.913 20.94,-2.839 32.91,-2.69 z m -4.98,4.782 c -11.23,0.338 -21.02,2.018 -28.89,5.302 -7.87,3.285 -14.01,8.392 -16.67,15.394 -2.66,7.003 -1.38,14.727 2.43,22.127 3.81,7.4 10.16,14.758 18.51,21.994 16.71,14.473 41.54,28.365 70.85,38.687 29.3,10.323 57.56,15.133 80.02,14.453 11.23,-0.34 21.04,-2.01 28.91,-5.29 7.87,-3.29 13.98,-8.403 16.64,-15.406 2.66,-7.002 1.42,-14.719 -2.4,-22.119 -3.81,-7.399 -10.19,-14.766 -18.54,-22.002 -16.71,-14.473 -41.5,-28.387 -70.81,-38.71 -29.31,-10.323 -57.59,-15.107 -80.05,-14.43 z m 0.1,8.661 c 20.94,-0.631 48.41,3.939 76.85,13.955 28.43,10.017 52.45,23.584 68.03,37.078 7.79,6.747 13.45,13.494 16.55,19.499 3.09,6.004 3.61,10.995 2.02,15.161 -1.58,4.165 -5.3,7.636 -11.69,10.301 -6.39,2.665 -15.23,4.302 -25.7,4.622 -20.95,0.63 -48.38,-3.935 -76.82,-13.952 -28.44,-10.017 -52.49,-23.591 -68.07,-37.085 -7.78,-6.747 -13.43,-13.487 -16.52,-19.491 -3.1,-6.004 -3.64,-10.98 -2.06,-15.145 1.58,-4.166 5.34,-7.652 11.73,-10.317 6.38,-2.666 15.21,-4.31 25.68,-4.626 z m -74.13,2.503 c -4.3,5.104 -7.258,10.989 -8.567,17.664 0,0.084 -0.04,0.168 -0.04,0.247 0,0.04 10e-4,0.06 -0.039,0.092 -2.187,11.148 0.53,22.692 6.946,34.014 -17.303,1.28 -31.972,4.55 -43.522,9.711 -13.191,5.894 -22.541,14.484 -25.976,25.571 -3.246,10.474 -0.854,21.844 5.49,32.884 6.344,11.03 16.647,22.02 30.084,32.64 26.874,21.25 66.384,41.03 112.534,54.74 46.15,13.72 90.23,18.79 124.62,15.75 17.19,-1.51 31.95,-5.04 43.46,-10.75 11.51,-5.71 19.91,-13.82 23.16,-24.3 2.99,-9.67 1.19,-20.33 -4.43,-30.91 -4.73,-8.93 -12.17,-17.97 -22.05,-26.94 15.34,-6.5 26.3,-16.44 30.26,-29.85 0.39,-1.26 0.72,-2.55 0.98,-3.865 3.14,-16.003 -3.98,-33.188 -17.96,-49.307 -2.49,-2.862 -5.29,-5.669 -8.31,-8.435 -1.93,-1.861 -3.93,-3.706 -6.04,-5.52 -6.41,-5.525 -13.7,-10.831 -21.59,-15.892 55.08,10.782 110.69,25.24 165.08,44.627 146.36,52.172 266.67,127.082 342.63,205.602 37.98,39.26 64.85,79.38 78.47,117.83 13.63,38.45 14.14,75.1 -0.38,108.2 -29.03,66.2 -113.95,106.66 -229.07,117.13 -115.13,10.47 -259.78,-9.07 -406.15,-61.24 -146.36,-52.18 -266.7,-127.09 -342.657,-205.6 -12.882,-13.32 -24.45,-26.74 -34.689,-40.16 l 0.35,-0.31 c -1.557,-1.75 -2.996,-3.48 -4.511,-5.23 -17.859,-24.29 -31.234,-48.55 -39.605,-72.17 -13.63,-38.45 -14.133,-75.06 0.382,-108.16 29.614,-67.522 120.951,-110.614 251.12,-118.066 z m -187.267,28.463 16.487,1.314 c -42.45,20.896 -72.882,49.475 -88.357,84.756 -15.504,35.36 -14.811,74.58 -0.614,114.63 1.145,3.23 2.411,6.47 3.728,9.71 -8.344,-13.81 -15.137,-27.28 -20.104,-40.27 -12.498,-32.67 -13.926,-62.1 -2.905,-87.21 27.288,-62.158 88.078,-81.788 91.765,-82.93 z m -41.523,11.212 c -20.338,13.6 -43.781,35.216 -58.257,68.188 -12.151,27.68 -10.291,59.78 2.757,93.89 12.386,32.38 34.908,66.8 65.479,102.04 0.761,1.03 1.537,2.06 2.314,3.1 -12.144,15.31 -24.094,30.44 -35.953,45.48 -21.771,-23.02 -37.704,-43.09 -49.739,-58.47 -46.126,-58.96 -45.257,-129.91 -45.257,-129.91 l -1.258,-0.04 c 2.671,-14.91 6.305,-26.79 10.646,-36.53 8.545,-19.2 19.735,-30.481 32.32,-41.669 20.188,-17.948 45.156,-34.505 76.948,-46.096 z m 232.75,20.999 c 2.55,3.449 5.41,6.864 8.58,10.224 -13.01,1.344 -24.166,4.022 -33.09,8.085 -11.062,5.038 -18.963,12.393 -21.836,21.86 -2.746,9.06 -0.532,18.83 5.024,28.18 5.557,9.35 14.464,18.57 26.03,27.47 9.352,7.21 20.532,14.17 33.052,20.69 -20.37,-9.64 -38.073,-20.3 -51.899,-31.24 -12.833,-10.14 -22.399,-20.5 -27.94,-30.14 -5.542,-9.64 -7.056,-18.28 -4.691,-25.919 2.487,-8.027 9.436,-14.921 21.161,-20.16 11.214,-5.011 26.938,-8.095 45.609,-9.05 z m 17.07,18.465 c 0.78,0.703 1.55,1.41 2.36,2.107 4.83,4.16 10.21,8.184 15.9,12.097 -1.51,1.626 -2.78,3.499 -3.76,5.57 -11.85,0.34 -22.18,1.89 -30.22,5.05 -8.8,3.46 -15.409,8.83 -18.078,16.19 -2.542,7 -1.088,14.71 2.935,21.98 1.802,3.25 4.192,6.48 6.973,9.68 -1.03,-0.75 -2.15,-1.49 -3.129,-2.25 -10.961,-8.44 -19.131,-17.07 -23.864,-25.04 -4.732,-7.96 -6.04,-14.98 -4.17,-21.15 1.942,-6.4 7.507,-12.021 17.115,-16.397 9.239,-4.208 22.318,-6.9 37.938,-7.837 z m 26.29,19.444 c 10.32,6.44 21.73,12.39 34.05,17.68 1.14,0.49 2.3,0.97 3.46,1.45 2.57,1.07 5.15,2.12 7.79,3.13 3.05,1.17 6.15,2.29 9.29,3.37 0.68,0.23 1.34,0.48 2.03,0.71 0.46,0.16 0.94,0.28 1.4,0.44 0.04,0 0.06,0.04 0.09,0.04 4.04,1.33 8.12,2.6 12.26,3.77 0.04,0 0.08,0.04 0.11,0.04 0.08,0.04 0.16,0.05 0.24,0.08 0.28,0.08 0.55,0.14 0.84,0.22 3.35,0.93 6.7,1.78 10.04,2.58 0.59,0.14 1.18,0.29 1.76,0.43 0.04,0 0.05,0 0.07,0 2.71,0.64 5.38,1.19 8.06,1.74 0.93,0.18 1.85,0.38 2.77,0.56 11.22,2.18 22.15,3.66 32.58,4.33 l -1.64,6.78 -2.14,8.81 c -0.19,0.69 -0.45,1.32 -0.78,1.91 -1,1.79 -2.7,3.22 -5.39,4.49 -1.79,0.85 -3.99,1.56 -6.52,2.09 -2.55,0.53 -5.42,0.9 -8.56,1.06 -12.57,0.63 -29.2,-1.79 -45.64,-6.17 -16.45,-4.39 -32.78,-10.75 -44.97,-17.69 -12.04,-6.86 -19.16,-14.56 -19.89,-19.19 l 3.93,-16.08 c 0.04,-0.14 0.1,-0.24 0.14,-0.38 0.05,-0.11 0.09,-0.22 0.12,-0.33 0.83,-2.49 2.56,-4.32 4.5,-5.87 z m -14.55,9.76 -2.95,12.16 c -0.13,0.52 -0.15,1.05 -0.09,1.58 1.33,10.44 11.35,18.49 24.45,25.96 13.1,7.46 29.97,13.98 47.04,18.54 17.08,4.55 34.31,7.14 48.34,6.43 7.02,-0.36 13.26,-1.49 18.41,-3.94 5.15,-2.44 9.32,-6.5 10.83,-11.99 0.02,-0.04 0.04,-0.09 0.06,-0.14 l 0.35,-1.5 c 6.96,5.76 13.73,11.58 16.93,16.72 4.15,6.66 5,12.07 3.41,16.45 -1.49,4.11 -5.24,7.69 -11.65,10.47 -6.42,2.78 -15.32,4.58 -25.89,5.1 -21.13,1.06 -48.89,-2.9 -77.78,-12.22 -28.88,-9.31 -53.37,-22.22 -69.35,-35.22 -7.99,-6.5 -13.83,-13.05 -17.05,-18.87 -3.228,-5.83 -3.869,-10.64 -2.38,-14.75 1.55,-4.27 5.68,-8.11 13.03,-11 5.91,-2.32 14.93,-3.2 24.29,-3.78 z m 199.23,25.55 c 11.1,9.5 19.44,18.92 24.02,27.54 4.86,9.16 5.98,17.24 3.81,24.24 -2.36,7.64 -8.59,14.04 -18.7,19.05 -10.1,5.01 -23.91,8.41 -40.35,9.87 -4.88,0.43 -10.05,0.63 -15.36,0.72 2.02,-0.12 4.09,-0.19 6.03,-0.37 14.66,-1.34 27.28,-4.34 37.13,-9.22 9.85,-4.89 17.09,-11.87 19.84,-20.93 2.62,-8.64 0.7,-18.14 -4.62,-27.41 -4.14,-7.23 -10.4,-14.49 -18.51,-21.68 2.3,-0.54 4.53,-1.15 6.71,-1.81 z m 392.13,3.03 c 59.84,36.97 108.68,62.83 136.8,75.23 l 1.28,-2.91 c 10.82,18.28 20.4,35.6 28.59,51.84 48.82,96.72 52.96,157.9 37.42,200.07 -4.21,11.44 -8.62,21.54 -13.09,30.47 13.06,-33.85 11.77,-71 -1.67,-108.92 -14.2,-40.05 -41.83,-81.09 -80.44,-121.01 -34.29,-35.43 -77.3,-69.98 -127.38,-102.05 z m -410.15,0.92 c 10.26,8.22 17.98,16.43 22.25,23.89 4.51,7.86 5.59,14.66 3.82,20.51 -1.87,6.17 -6.93,11.44 -15.38,15.63 -7.71,3.83 -18.18,6.51 -30.52,7.93 6.46,-3.35 11.38,-8.04 13.62,-14.19 2.73,-7.55 0.84,-16.01 -4.2,-24.09 -4.65,-7.47 -12.12,-14.93 -21.87,-22.29 l 1.39,-5.68 c 0,0 0,0 0,-0.04 10.97,0.27 21.35,-0.28 30.88,-1.68 z m -387.945,19.72 c -4.896,-0.04 -9.537,0.19 -13.854,0.67 -8.634,0.96 -16.026,2.89 -21.782,6.09 -5.756,3.19 -10.021,7.88 -11.244,14.01 -1.222,6.12 0.823,12.55 4.768,18.43 3.944,5.88 9.823,11.5 17.192,16.88 14.739,10.75 35.582,20.48 59.415,27.06 23.833,6.58 46.144,8.75 63.412,6.84 8.635,-0.96 16.035,-2.92 21.792,-6.12 5.756,-3.2 10.028,-7.89 11.251,-14.01 1.222,-6.13 -0.824,-12.56 -4.768,-18.44 -3.944,-5.87 -9.839,-11.47 -17.209,-16.84 -14.738,-10.75 -35.542,-20.48 -59.375,-27.06 -17.874,-4.93 -34.911,-7.4 -49.598,-7.51 z m 0.467,8.92 c 13.798,0.12 30.206,2.42 47.416,7.17 22.946,6.34 42.945,15.8 56.44,25.64 6.747,4.92 11.852,9.94 14.879,14.45 3.026,4.51 3.94,8.21 3.314,11.34 -0.625,3.14 -2.851,5.97 -7.268,8.42 -2.239,1.25 -5.008,2.33 -8.223,3.21 3.005,-2.32 5.24,-5.3 6.033,-9.01 1.09,-5.09 -0.768,-10.31 -4.069,-14.9 -3.301,-4.59 -8.13,-8.88 -14.164,-12.99 -12.068,-8.21 -29.016,-15.59 -48.433,-20.59 -19.417,-5 -37.627,-6.67 -51.766,-5.21 -7.069,0.73 -13.136,2.22 -17.954,4.72 -4.818,2.5 -8.601,6.27 -9.691,11.36 -0.314,1.46 -0.361,2.92 -0.226,4.38 -0.669,-0.83 -1.348,-1.67 -1.887,-2.47 -3.026,-4.51 -3.942,-8.21 -3.316,-11.34 0.625,-3.13 2.844,-5.98 7.261,-8.43 4.417,-2.45 10.887,-4.27 18.792,-5.15 3.953,-0.44 8.26,-0.64 12.86,-0.6 z m 5.715,15.87 c 11.147,0.09 24.441,1.84 38.376,5.43 18.581,4.78 34.78,11.94 45.646,19.34 5.433,3.69 9.497,7.47 11.858,10.75 2.361,3.28 2.943,5.73 2.532,7.65 -0.412,1.92 -1.936,3.86 -5.382,5.65 -3.446,1.79 -8.607,3.15 -14.972,3.81 -12.73,1.32 -30.14,-0.18 -48.721,-4.97 -18.581,-4.78 -34.811,-11.94 -45.676,-19.33 -5.434,-3.7 -9.505,-7.44 -11.866,-10.73 -2.361,-3.28 -2.934,-5.76 -2.523,-7.68 0.412,-1.93 1.927,-3.84 5.373,-5.63 3.446,-1.78 8.614,-3.18 14.98,-3.84 3.182,-0.33 6.66,-0.48 10.375,-0.45 z m 23.28,3.31 c -0.095,0 -0.191,0 -0.286,0 -0.689,0.05 -1.357,0.27 -1.948,0.63 -0.591,0.35 -1.089,0.85 -1.453,1.44 -0.611,0.98 -0.807,2.17 -0.543,3.3 0.264,1.13 0.964,2.11 1.948,2.72 l 45.172,28.15 c 0.982,0.62 2.167,0.82 3.295,0.56 1.128,-0.26 2.107,-0.96 2.723,-1.94 0.309,-0.49 0.517,-1.03 0.615,-1.6 0.097,-0.57 0.082,-1.15 -0.047,-1.72 -0.128,-0.56 -0.367,-1.09 -0.702,-1.56 -0.334,-0.47 -0.758,-0.87 -1.248,-1.18 l -45.195,-28.14 c -0.699,-0.44 -1.507,-0.67 -2.33,-0.66 z m -15.057,3.53 c -0.093,0 -0.185,0 -0.278,0 -0.689,0.05 -1.358,0.26 -1.951,0.62 -0.592,0.36 -1.092,0.85 -1.458,1.44 -0.613,0.98 -0.811,2.17 -0.552,3.3 0.259,1.13 0.955,2.11 1.935,2.72 l 45.194,28.16 c 0.985,0.61 2.172,0.8 3.3,0.54 1.129,-0.27 2.107,-0.97 2.719,-1.95 0.611,-0.99 0.805,-2.18 0.542,-3.31 -0.264,-1.13 -0.964,-2.1 -1.947,-2.72 l -45.172,-28.15 c -0.7,-0.43 -1.508,-0.66 -2.33,-0.65 z m -16.586,3.53 c -0.082,-0.01 -0.165,-0.01 -0.247,0 -0.694,0.04 -1.368,0.25 -1.965,0.61 -0.597,0.36 -1.1,0.85 -1.467,1.45 -0.611,0.98 -0.806,2.17 -0.543,3.3 0.264,1.13 0.964,2.11 1.947,2.72 l 45.172,28.15 c 0.489,0.31 1.034,0.52 1.603,0.61 0.569,0.1 1.151,0.08 1.712,-0.06 0.562,-0.13 1.092,-0.37 1.56,-0.71 0.468,-0.33 0.865,-0.76 1.168,-1.25 0.611,-0.99 0.805,-2.18 0.542,-3.31 -0.264,-1.12 -0.965,-2.1 -1.949,-2.72 l -45.203,-28.14 c -0.699,-0.44 -1.505,-0.67 -2.328,-0.66 z m -176.518,6 c 4.844,27.08 16.328,65.76 43.579,100.59 12.246,15.65 28.659,36.25 51.19,59.94 C 524.662,1544.83 352.694,1779.28 237.997,1979.36 116.392,2191.5 59.0149,2365.18 74.5577,2516.96 34.7891,2468.58 8.74397,2402.67 8.74397,2339.39 c 0,-48.37 23.57483,-134.41 60.93603,-230.85 37.361,-96.44 88.41,-203.63 142.932,-295.79 108.989,-184.22 280.363,-374.85 364.964,-486.96 51.89,-68.76 72.937,-151.78 74.199,-206.11 0.147,-6.39 0.442,-12.34 0.801,-18.07 z m 719.094,32.12 c -5.45,-0.04 -10.6,0.21 -15.4,0.74 -9.59,1.07 -17.79,3.24 -24.13,6.77 -3.91,2.18 -7.18,4.96 -9.42,8.33 l -0.67,-0.2 -1.44,3.79 -11.65,30.65 c -9.55,4.12 -15.82,10.55 -17.47,18.62 -1.47,7.18 0.97,14.59 5.75,21.57 4.77,6.97 11.99,13.76 21.1,20.27 18.23,13.02 44.14,24.89 73.81,32.91 29.68,8.02 57.49,10.68 78.93,8.35 10.72,-1.16 19.87,-3.54 26.97,-7.41 7.1,-3.86 12.3,-9.51 13.76,-16.69 1.26,-6.18 -0.41,-12.73 -4.21,-19.12 l 9.94,-31.53 -0.17,-0.06 c 1.16,-6.54 -1.05,-13.43 -5.32,-19.78 -4.34,-6.49 -10.85,-12.72 -19.04,-18.7 -16.38,-11.96 -39.56,-22.82 -66.11,-30.15 -19.91,-5.5 -38.89,-8.23 -55.23,-8.36 z m 0.47,8.92 c 1.87,0 3.79,0.07 5.75,0.16 -4.42,0 -8.62,0.2 -12.52,0.63 -8.12,0.9 -15.02,2.75 -20.24,5.66 -5.21,2.9 -8.85,6.96 -9.89,12.16 -1.03,5.19 0.68,10.74 4.26,16.07 3.57,5.34 9.05,10.58 15.99,15.64 13.86,10.12 33.69,19.42 56.37,25.69 22.68,6.26 43.92,8.3 60.16,6.5 8.13,-0.91 15.01,-2.74 20.23,-5.64 5.22,-2.9 8.86,-6.97 9.9,-12.16 1.03,-5.19 -0.68,-10.75 -4.26,-16.08 -3.58,-5.33 -9.05,-10.6 -15.98,-15.66 -2.65,-1.93 -5.58,-3.82 -8.64,-5.68 5.56,3.07 10.66,6.24 15.08,9.47 7.57,5.52 13.29,11.17 16.72,16.29 3.25,4.84 4.36,8.93 3.86,12.48 l 0.07,0.04 -0.11,0.34 -0.76,2.43 -5.08,16.33 -8.28,26.57 c -0.36,0.33 -1.17,1.16 -4.41,2.94 -3.77,2.08 -9.7,4.66 -18.13,6.44 -16.86,3.55 -43.78,3.92 -83.47,-9.82 -42.01,-14.54 -60.4,-30.34 -68.3,-41.81 -3.95,-5.74 -5.33,-10.43 -5.81,-13.58 -0.47,-3.06 -0.17,-4.16 -0.15,-4.23 l 8.11,-21.31 5.93,-14.71 h 0.06 c 1.01,-3.23 3.49,-6.15 8,-8.66 5.01,-2.78 12.27,-4.85 21.13,-5.84 4.43,-0.49 9.26,-0.72 14.41,-0.67 z m 6.53,4.61 c 13.46,0.11 29.36,2.36 46.04,6.97 22.24,6.14 41.63,15.31 54.87,24.98 6.62,4.83 11.71,9.78 14.82,14.43 3.12,4.65 4.27,8.85 3.53,12.55 -0.74,3.7 -3.35,6.84 -7.9,9.37 -4.55,2.53 -10.98,4.3 -18.74,5.16 -15.51,1.73 -36.34,-0.21 -58.58,-6.36 -22.24,-6.14 -41.65,-15.31 -54.89,-24.98 -6.63,-4.83 -11.71,-9.78 -14.83,-14.43 -3.12,-4.64 -4.24,-8.82 -3.5,-12.52 0.74,-3.7 3.32,-6.88 7.87,-9.41 4.55,-2.53 10.98,-4.3 18.74,-5.16 3.88,-0.43 8.09,-0.64 12.57,-0.6 z m -237.61,3.28 c -5.44,-0.04 -10.6,0.21 -15.39,0.74 -9.6,1.07 -17.79,3.24 -24.14,6.77 -3.91,2.18 -7.17,4.96 -9.42,8.33 l -0.67,-0.2 -1.43,3.79 -11.5,30.24 c -9.48,4.08 -16.07,10.36 -17.74,18.55 -1.47,7.19 0.95,14.6 5.72,21.58 4.78,6.97 11.99,13.76 21.1,20.28 18.23,13.02 44.15,24.91 73.82,32.93 29.67,8.02 57.48,10.68 78.92,8.35 10.72,-1.17 19.87,-3.57 26.97,-7.43 7.1,-3.87 12.31,-9.51 13.77,-16.7 1.18,-5.77 1,-12.53 -3.61,-19.63 l -0.1,-0.16 9.59,-30.39 -0.19,-0.06 c 1.17,-6.54 -1.04,-13.43 -5.3,-19.78 -4.35,-6.49 -10.86,-12.72 -19.05,-18.7 -16.38,-11.96 -39.57,-22.82 -66.12,-30.15 -19.91,-5.5 -38.87,-8.23 -55.22,-8.36 z m 0.47,8.92 c 0.08,0 0.17,0 0.25,0 -2.46,0.1 -4.86,0.25 -7.13,0.51 -8.11,0.89 -14.96,2.76 -20.15,5.65 -5.18,2.88 -8.77,6.91 -9.8,12.04 -1.02,5.13 0.67,10.61 4.23,15.91 3.55,5.31 8.98,10.54 15.9,15.59 13.84,10.1 33.63,19.38 56.29,25.64 22.67,6.26 43.93,8.31 60.14,6.51 8.11,-0.9 14.95,-2.74 20.14,-5.63 5.19,-2.88 8.78,-6.91 9.81,-12.03 1.02,-5.13 -0.67,-10.62 -4.23,-15.92 -3.55,-5.3 -8.98,-10.56 -15.9,-15.61 -1.73,-1.26 -3.55,-2.51 -5.45,-3.74 4.41,2.56 8.48,5.18 12.12,7.83 7.56,5.52 13.29,11.17 16.72,16.29 3.25,4.84 4.36,8.93 3.85,12.48 l 0.07,0.04 -0.1,0.34 -0.76,2.43 -5.09,16.33 -8.28,26.57 c -0.36,0.33 -1.17,1.16 -4.4,2.94 -3.77,2.08 -9.7,4.66 -18.13,6.44 -16.87,3.56 -43.79,3.92 -83.48,-9.82 -42,-14.54 -60.39,-30.34 -68.29,-41.81 -3.95,-5.74 -5.34,-10.43 -5.82,-13.58 -0.45,-2.93 -0.19,-3.99 -0.15,-4.14 l 2.15,-5.69 c 0.04,-0.11 0.07,-0.22 0.1,-0.33 l 5.86,-15.38 5.93,-14.71 h 0.07 c 1,-3.23 3.48,-6.15 7.99,-8.66 5.01,-2.78 12.27,-4.85 21.13,-5.84 4.44,-0.49 9.27,-0.72 14.42,-0.67 z m 279.19,1.47 c -0.75,0.01 -1.49,0.22 -2.13,0.59 -0.65,0.38 -1.19,0.92 -1.57,1.56 l -9.81,16.66 -20.13,3.91 c -1.13,0.23 -2.13,0.89 -2.78,1.85 -0.65,0.96 -0.9,2.13 -0.68,3.27 0.22,1.14 0.88,2.14 1.84,2.79 0.95,0.65 2.13,0.89 3.26,0.68 l 21.16,-4.09 45.59,10.35 c 1.13,0.25 2.31,0.05 3.29,-0.57 0.98,-0.62 1.68,-1.6 1.93,-2.73 0.13,-0.56 0.15,-1.14 0.05,-1.71 -0.09,-0.57 -0.3,-1.11 -0.6,-1.6 -0.31,-0.49 -0.71,-0.91 -1.18,-1.25 -0.47,-0.33 -1,-0.57 -1.56,-0.7 l -40.6,-9.22 7.76,-13.17 c 0.29,-0.49 0.48,-1.04 0.56,-1.61 0.08,-0.57 0.05,-1.15 -0.1,-1.71 -0.14,-0.55 -0.39,-1.08 -0.74,-1.53 -0.34,-0.46 -0.78,-0.85 -1.27,-1.14 -0.59,-0.36 -1.26,-0.57 -1.94,-0.62 -0.12,-0.01 -0.24,-0.01 -0.35,0 z m -272.81,2.46 c 13.47,0.12 29.38,2.4 46.07,7.01 22.26,6.15 41.69,15.28 54.96,24.97 6.64,4.84 11.73,9.83 14.87,14.51 3.13,4.68 4.31,8.94 3.55,12.71 -0.75,3.77 -3.41,6.95 -7.99,9.5 -4.58,2.55 -11.02,4.35 -18.8,5.21 -15.55,1.73 -36.4,-0.27 -58.66,-6.41 -22.26,-6.15 -41.69,-15.29 -54.96,-24.98 -6.64,-4.84 -11.7,-9.82 -14.84,-14.5 -3.14,-4.67 -4.31,-8.92 -3.56,-12.68 0.75,-3.77 3.41,-6.98 7.99,-9.53 4.58,-2.55 11,-4.35 18.78,-5.22 3.89,-0.43 8.1,-0.63 12.59,-0.59 z m 36.69,10.62 c -0.47,0 -0.94,0.07 -1.38,0.22 -1.1,0.36 -2.02,1.14 -2.54,2.18 -0.52,1.03 -0.61,2.23 -0.25,3.34 l 3.83,11.74 -30.89,-1.13 c -0.58,-0.03 -1.15,0.06 -1.69,0.26 -0.54,0.2 -1.04,0.5 -1.46,0.89 -0.42,0.39 -0.76,0.86 -1,1.38 -0.25,0.53 -0.38,1.09 -0.41,1.67 -0.02,0.57 0.07,1.15 0.27,1.69 0.2,0.55 0.51,1.04 0.9,1.47 0.4,0.42 0.87,0.76 1.4,1 0.52,0.24 1.09,0.37 1.67,0.39 l 34.1,1.26 6.31,19.34 c 0.18,0.54 0.46,1.05 0.84,1.48 0.37,0.44 0.83,0.8 1.34,1.06 0.51,0.26 1.07,0.41 1.65,0.46 0.57,0.04 1.14,-0.03 1.69,-0.21 0.55,-0.18 1.05,-0.46 1.49,-0.84 0.44,-0.37 0.8,-0.83 1.06,-1.34 0.26,-0.51 0.42,-1.07 0.46,-1.64 0.05,-0.58 -0.02,-1.15 -0.2,-1.7 l -5.32,-16.27 24.34,0.9 c 1.15,0.04 2.28,-0.38 3.13,-1.17 0.85,-0.78 1.35,-1.87 1.4,-3.03 0.02,-0.58 -0.07,-1.15 -0.27,-1.69 -0.2,-0.54 -0.5,-1.04 -0.89,-1.46 -0.39,-0.42 -0.86,-0.77 -1.38,-1.01 -0.52,-0.24 -1.09,-0.37 -1.66,-0.4 l -27.57,-1.01 -4.84,-14.79 c -0.28,-0.88 -0.83,-1.64 -1.58,-2.19 -0.74,-0.54 -1.63,-0.84 -2.55,-0.85 z m 121.12,21.57 c 0,1.12 0.05,2.36 0.27,3.8 0.67,4.41 2.61,10.43 7.28,17.22 9.36,13.59 29.5,30.18 72.61,45.1 40.89,14.16 69.55,14.04 88.14,10.12 9.29,-1.96 16.06,-4.85 20.55,-7.32 4.48,-2.47 6.95,-4.73 6.95,-4.73 l 0.82,-0.79 0.4,-1.28 c 0.3,0.72 0.62,1.44 0.51,1.98 -0.85,4.15 -3.75,7.69 -9.37,10.75 -5.62,3.06 -13.78,5.32 -23.74,6.4 -19.9,2.17 -46.89,-0.32 -75.7,-8.1 -28.8,-7.79 -53.95,-19.4 -71.02,-31.59 -8.53,-6.1 -15.03,-12.37 -18.96,-18.11 -3.94,-5.74 -5.25,-10.72 -4.41,-14.87 0.65,-3.17 2.38,-6.04 5.67,-8.58 z m -230.46,19.21 c 0.04,0.47 0.06,0.9 0.13,1.4 0.67,4.41 2.61,10.43 7.29,17.22 9.35,13.58 29.49,30.18 72.6,45.1 40.89,14.16 69.55,14.04 88.14,10.12 9.3,-1.96 16.06,-4.86 20.55,-7.33 4.49,-2.47 6.96,-4.72 6.96,-4.72 l 0.8,-0.8 1.28,-4.03 c -0.04,1.34 -0.2,2.7 -0.51,4.26 -0.85,4.15 -3.74,7.69 -9.36,10.75 -5.62,3.06 -13.8,5.33 -23.75,6.41 -19.9,2.16 -46.89,-0.29 -75.69,-8.08 -28.8,-7.79 -53.96,-19.42 -71.03,-31.62 -8.54,-6.1 -15.03,-12.32 -18.96,-18.07 -3.94,-5.74 -5.22,-10.72 -4.38,-14.87 0.45,-2.19 3.34,-3.93 5.93,-5.74 z m -281.027,2.12 c 9.534,12.12 20.1,24.18 31.677,36.15 77.231,79.83 198.58,155.23 346.01,207.78 147.43,52.55 293.11,72.32 409.87,61.71 70.23,-6.39 130.21,-23.8 173.64,-52.04 l 59.11,63.04 c -14.1,7.49 -28.27,14.76 -42.46,21.8 -58.35,22.12 -138.02,29.75 -229.74,23.82 -119.61,-7.74 -259.58,-38.29 -399.48,-88.24 -206.543,-73.75 -319.404,-162.78 -383.967,-229.29 11.651,-14.78 23.413,-29.68 35.34,-44.73 z m -40.776,51.6 c 65.503,67.12 179.752,156.87 386.463,230.68 140.57,50.19 281.21,80.93 401.86,88.74 68.05,4.4 129.75,1.58 181.57,-9.34 -16.64,7.62 -33.23,14.9 -49.72,21.81 l -0.57,-0.43 c 0,0 -0.62,0.88 -0.69,0.96 -139.05,58.14 -270.3,90.35 -351.04,81.97 -26.6,-2.76 -40.88,-9.43 -55.67,-13.99 -14.79,-4.56 -30.06,-6.61 -55.53,0.68 -36.78,10.52 -52.6,15.74 -58.44,17.78 -7.57,-8.02 -13.96,-14.31 -13.96,-14.31 l -0.74,-0.74 L 1001.1,1629 c -3.398,-1.08 -8.515,-1.51 -16.146,-1.7 -7.629,-0.19 -17.284,0.11 -27.853,1.27 -21.14,2.32 -45.892,8.07 -64.889,21.27 -12.695,8.82 -25.656,25.61 -36.483,42.58 -10.826,16.98 -19.255,33.77 -22.039,43.73 -2.71,9.69 -4.799,27.15 -4.527,45.84 0.27,18.68 2.804,38.32 10.632,52.03 4.475,7.85 15.29,17 30.137,28.01 14.846,11.01 33.585,23.29 53.069,34.94 3.004,1.79 6.036,3.53 9.063,5.29 -8.616,13.19 -138.515,211.85 -205.592,302.3 -34.591,46.65 -109.858,136.95 -184.672,219.13 -37.407,41.09 -74.723,80.17 -106.775,110.78 -32.053,30.61 -59.279,52.82 -74.604,59.68 -65.417,29.26 -130.444,19.63 -210.826,-17.08 -27.152,-12.4 -52.2988,-32.85 -73.6095,-58.34 l 7.4549,-0.78 C 67.5283,2368.6 123.893,2195.97 245.569,1983.71 359.728,1784.56 531.232,1550.65 753.457,1268.51 Z m 909.133,346.13 c -2.7,3.9 -5.58,8.15 -8.63,12.87 -9.76,15.11 -20.1,32.26 -21.9,44.84 -1.59,11.17 -0.65,20.09 -2.87,27.97 -2.22,7.89 -7.26,15.58 -22.28,25.28 -29.17,18.84 -84.54,20.38 -147.16,4.46 -52.66,-13.39 -89.67,-22.62 -118.61,-37.16 81.16,2.05 197.76,-27.62 321.45,-78.26 z m -683.637,21.38 c 2.05,0 3.99,0 5.8,0.05 7.236,0.17 12.881,1.02 13.706,1.29 l 133.861,42.69 c 0.39,0.39 3.77,3.72 8.25,8.35 -12.34,0.49 -35.14,2.09 -61.31,7.46 -39,8 -85.319,24.18 -113.914,58.24 -37.008,44.09 -35.344,110.56 -9.714,151.4 -9.309,-5.06 -18.807,-10.48 -28.142,-16.06 -19.278,-11.52 -37.845,-23.66 -52.363,-34.43 -14.518,-10.77 -25.137,-20.73 -27.761,-25.33 -6.372,-11.17 -9.191,-29.88 -9.452,-47.81 -0.262,-17.92 1.934,-35.29 4.194,-43.37 2.186,-7.82 10.486,-24.88 20.99,-41.35 10.504,-16.47 23.488,-32.73 34.099,-40.11 17.016,-11.83 40.556,-17.55 60.842,-19.78 7.607,-0.83 14.761,-1.19 20.914,-1.24 z m 169.687,60.92 c 0.93,1 1.81,1.93 2.76,2.97 4.87,5.36 9.67,10.95 13,15.46 1.06,1.43 1.88,2.69 2.59,3.83 -11.08,-1.26 -37.31,-3.47 -68.1,-0.77 -40.84,3.58 -90.04,15.74 -122.384,51.13 -17.55,19.19 -23.677,54.88 -17.022,89.53 4.76,24.79 16.471,49.23 36.319,66.17 -3.707,-1.58 -7.551,-3.28 -11.555,-5.17 -5.386,-2.54 -11.053,-5.4 -16.827,-8.38 l 2.127,-1.75 c -29.011,-35.24 -34.539,-106.1 2.492,-150.22 26.453,-31.51 70.95,-47.5 108.98,-55.3 35.24,-7.22 63.5,-7.5 67.62,-7.5 z m -21.03,28.96 c 15.91,-0.06 28.62,0.96 36.19,1.76 -1.67,1.84 -3.26,3.61 -5.59,6.02 -6.63,6.83 -15.55,15.65 -25.04,25.12 -18.96,18.94 -40.08,40.31 -50.36,54.89 -38,53.88 -52.94,116.01 -53.03,116.39 0,0 -0.49,1.5 -1.47,2.85 -0.8,1.11 -1.42,1.73 -2.43,1.84 l 0.55,-1.51 c -33.671,-12.43 -52.11,-43.32 -58.35,-75.81 -6.241,-32.5 0.431,-66.18 14.88,-81.99 30.01,-32.83 76.98,-44.82 116.7,-48.31 9.93,-0.87 19.37,-1.22 27.95,-1.25 z"
         fill="#000000"
         id="path67" />
    </g>
    <g
       clip-path="url(#clip0_901_50)"
       id="g43"
       transform="matrix(0.05342782,0,0,0.05342782,200.12726,34.332554)">
      <path
         d="M 1125.71,0.0280843 C 1111.82,0.175368 1097.96,1.11287 1084.22,2.92804 938.656,22.1573 591.557,117.811 338.531,398.387 86.2073,678.185 4.06594,856.704 0.0343524,1098.92 -2.01046,1221.73 87.5756,1331.47 176.986,1410.63 c 88.419,78.28 176.979,126.7 178.94,127.77 0.131,0.09 0.271,0.17 0.404,0.27 l 2.601,1.86 0.071,-0.07 c 13.513,9.01 28.876,16.73 45.894,23.21 32.496,16.13 65.088,31.07 97.286,44.64 2.591,3.51 8.799,12.01 16.525,23.96 9.565,14.8 19.362,32.79 20.579,41.32 1.418,9.94 0.306,19.16 3.106,29.12 2.802,9.96 9.837,19.83 25.944,30.24 33.087,21.37 90.162,21.86 154.06,5.61 62.248,-15.82 103.526,-25.85 136.307,-46.86 0.287,-0.04 0.592,-0.03 0.878,-0.07 27.734,-2.88 43.371,-10.03 57.347,-14.34 13.977,-4.31 26.304,-6.19 50.538,0.74 32.068,9.17 47.044,13.95 54.314,16.39 -4.86,5.36 -9.65,10.91 -13.23,15.75 -1.83,2.47 -3.33,4.74 -4.42,6.87 -1.09,2.14 -2.3,4.06 -1.32,7.32 0.45,1.51 1.03,2.24 1.75,3.23 0.72,0.99 1.59,2.07 2.65,3.29 2.12,2.44 4.96,5.43 8.33,8.91 6.75,6.95 15.66,15.76 25.12,25.21 18.92,18.89 40.05,40.53 49.37,53.74 36.89,52.32 51.77,113.61 51.77,113.61 v 0.11 l 0.06,0.12 c 0,0 0.78,2.77 2.76,5.5 1.98,2.73 5.94,5.99 11.18,5.4 10.68,-1.2 25.85,-7.06 43.68,-15.45 12.77,-6.02 26.79,-13.42 40.87,-21.4 7.85,12.02 138.44,211.83 206.17,303.17 34.99,47.18 110.23,137.42 185.22,219.8 37.5,41.18 74.93,80.38 107.22,111.21 32.29,30.84 59,53.26 77.04,61.33 68.06,30.44 136.55,20.14 218.04,-17.07 83.02,-37.92 145.96,-144.33 145.96,-245.68 0,-51.16 -23.98,-137.13 -61.52,-234.04 -37.54,-96.9 -88.73,-204.38 -143.55,-297.04 -109.69,-185.4 -281.47,-376.44 -365.52,-487.81 -50.53,-66.95 -71.22,-148.78 -72.44,-201.02 -1.01,-43.59 -6.97,-72.07 -16.17,-92.71 -9.19,-20.64 -21.62,-33.229 -34.48,-44.664 -27.85,-24.76 -64.79,-47.12 -115.22,-57.929 92.87,-100.49 169,-236.116 205.62,-358.949 18.65,-62.59 27.09,-121.867 21.98,-171.665 -2.33,-22.763 -7.59,-43.578 -16,-61.77 l 0.76,-0.211 c 0,0 -9.21,-34.204 -28.17,-76.433 C 1536.34,212.92 1507.7,162.451 1468.15,129.534 1399.72,72.5956 1269.33,3.53092 1139.6,0.124296 c -4.63,-0.123399756 -9.26,-0.1513614 -13.89,-0.0996131 z m 0.09,8.7776057 c 131.1,-1.20294 267.47,69.85811 336.74,127.49731 37.75,31.42 66.1,80.862 84.76,122.451 7.58,16.887 13.49,32.276 17.93,44.797 -7.53,-9.274 -16.32,-17.405 -26.53,-24.14 -15.14,-9.985 -35.01,-16.471 -58.85,-19.6 -23.84,-3.129 -51.65,-2.896 -82.65,0.614 -61.99,7.021 -136.83,27.355 -218.18,61.475 -162.7,68.239 -351.366,191.706 -513.712,374.918 -324.07,365.722 -393.33,564.122 -377.409,684.392 7.883,59.56 24.625,98.72 39.534,123.04 2.803,4.57 5.509,8.47 8.13,12.04 C 303.086,1496.56 243.155,1457.53 182.77,1404.07 94.2016,1325.66 6.81244,1217.51 8.7841,1099.06 12.7843,858.75 93.2931,683.393 345.013,404.265 596.032,125.915 941.756,30.5677 1085.37,11.5968 1098.73,9.8306 1112.24,8.93029 1125.8,8.80569 Z M 1441.27,266.435 c 40.33,-0.235 72.17,6.809 92.61,20.292 33.37,22.003 51.16,59.634 56.09,107.749 4.94,48.115 -3.22,106.434 -21.65,168.26 -36.72,123.181 -114.19,260.197 -207.89,359.96 l -15.74,1.251 c 77.86,-97.967 153.17,-218.531 194.86,-326.777 21.41,-55.577 34,-107.898 33.29,-152.477 -0.72,-44.58 -15.06,-81.753 -47.47,-105.191 -29.36,-21.237 -76.42,-28.565 -135.54,-22.687 -59.11,5.877 -130.41,25.137 -208.29,58.357 -8.3,3.541 -16.69,7.274 -25.14,11.133 l -1.42,-0.497 c -0.16,0.459 -0.34,0.916 -0.5,1.376 -149.53,68.682 -320.087,187.214 -473.089,359.882 -162.016,182.839 -255.838,315.094 -305.237,412.964 -49.4,97.88 -54.464,161.82 -37.803,207.05 17.062,46.32 37.514,72.15 53.978,86.39 8.232,7.13 15.449,11.33 20.687,13.78 0.68,0.32 1.244,0.53 1.864,0.79 l -56.424,60.21 c -1.92,-1.46 -10.652,-7.52 -23.568,-28.59 -14.248,-23.24 -30.563,-61.15 -38.3,-119.6 C 281.27,1264.34 348.419,1067.64 671.855,702.633 833.263,520.48 1020.95,397.663 1182.4,329.946 c 80.72,-33.858 154.9,-53.924 215.81,-60.821 15.22,-1.724 29.61,-2.612 43.06,-2.69 z m -11.43,57.214 c 39.24,0.404 70.25,8.341 90.43,22.935 29.86,21.6 43.13,55.447 43.81,98.257 0.69,42.809 -11.53,94.262 -32.69,149.188 -42.31,109.832 -120.18,233.576 -199.74,332.282 -45.28,-19.391 -102.43,-30.885 -168.54,-33.431 -8.71,-5.588 -19.73,-9.607 -32.27,-12.043 -27.93,-5.426 -64.09,-3.28 -102.33,7.51 -16.6,4.684 -32.16,10.669 -46.424,17.501 -64.541,10.901 -130.37,28.15 -194.362,50.963 -79.364,28.29 -151.054,63.239 -212.479,101.899 l -18.467,-22.7 c 66.57,-41.461 146.1,-96.319 226.31,-162.093 154.36,-126.581 310.622,-293.019 378.322,-480.265 7.92,-3.603 15.78,-7.105 23.56,-10.426 77.23,-32.942 147.79,-51.951 205.72,-57.711 10.86,-1.08 21.28,-1.694 31.2,-1.843 2.69,-0.039 5.34,-0.051 7.95,-0.04 z m -279.66,75.189 C 1081.81,580.301 928.966,742.989 777.543,867.161 628.348,989.506 480.657,1074.42 417.567,1103.67 471.578,1014.24 557.52,900.06 687.937,752.881 837.406,584.201 1003.74,467.511 1150.18,398.838 Z m -54.42,488.11 c 11.97,-0.152 23.06,0.776 32.91,2.69 26.22,5.094 42.96,16.991 46.19,33.221 1.97,10.531 -1.86,22.573 -10.67,34.807 -0.71,0.987 -1.44,1.971 -2.21,2.954 -0.43,0.556 -0.89,1.109 -1.34,1.664 -0.91,1.099 -1.84,2.204 -2.82,3.297 -0.33,0.366 -0.64,0.736 -0.97,1.104 -1.35,1.467 -2.78,2.924 -4.26,4.377 -1.83,1.808 -3.79,3.605 -5.82,5.395 -1.33,1.161 -2.72,2.308 -4.13,3.452 -0.87,0.719 -1.76,1.434 -2.67,2.146 -3.66,2.864 -7.51,5.681 -11.61,8.412 -1.37,0.912 -2.8,1.79 -4.21,2.683 -0.4,0.25 -0.78,0.505 -1.18,0.754 -0.3,0.187 -0.59,0.374 -0.89,0.56 -0.38,0.234 -0.74,0.475 -1.12,0.707 -1.67,1.013 -3.39,1.999 -5.11,2.986 -1.08,0.622 -2.19,1.231 -3.3,1.842 -0.3,0.171 -0.6,0.341 -0.91,0.511 -2.2,1.2 -4.42,2.38 -6.69,3.54 -2.47,1.25 -4.97,2.49 -7.52,3.69 -1.56,0.72 -3.14,1.44 -4.73,2.14 -2.5,1.11 -5.05,2.19 -7.62,3.24 -0.21,0.09 -0.42,0.18 -0.63,0.27 -0.83,0.33 -1.64,0.68 -2.47,1.01 -0.46,0.19 -0.93,0.36 -1.4,0.54 -3.27,1.27 -6.6,2.49 -9.95,3.65 -0.04,0 -0.08,0.04 -0.12,0.04 -1.12,0.38 -2.24,0.77 -3.37,1.15 -0.04,0 -0.08,0.04 -0.12,0.04 h -0.06 c -3.76,1.24 -7.56,2.43 -11.4,3.53 -0.29,0.08 -0.57,0.18 -0.87,0.26 -0.35,0.1 -0.7,0.18 -1.05,0.28 -0.53,0.15 -1.05,0.26 -1.58,0.4 -3.23,0.88 -6.45,1.72 -9.64,2.47 -0.07,0 -0.14,0.04 -0.21,0.04 -0.42,0.1 -0.83,0.2 -1.25,0.3 -0.92,0.21 -1.84,0.37 -2.76,0.57 -3.17,0.69 -6.33,1.36 -9.44,1.92 -0.48,0.09 -0.96,0.16 -1.44,0.25 -0.8,0.14 -1.58,0.25 -2.37,0.39 -0.07,0 -0.13,0 -0.2,0.04 -3.23,0.53 -6.44,1.04 -9.59,1.44 -0.88,0.11 -1.73,0.18 -2.6,0.28 -3.52,0.41 -7.01,0.78 -10.43,1.02 -0.16,0 -0.32,0 -0.48,0.04 -0.31,0.04 -0.62,0.04 -0.93,0.06 -16.294,1.06 -31.288,0.28 -44.153,-2.22 -26.077,-5.06 -42.762,-16.87 -46.127,-32.956 -2.421,-12.333 3.042,-27.009 15.966,-41.905 12.863,-14.827 32.907,-29.555 58.202,-41.782 13.939,-6.725 29.232,-12.653 45.592,-17.268 23.21,-6.548 45.61,-9.772 65.56,-10.021 z m -3.71,4.781 c -20.86,0.604 -45.73,5.397 -71.37,14.43 -29.308,10.323 -54.099,24.238 -70.806,38.71 -8.353,7.236 -14.731,14.602 -18.544,22.002 -3.813,7.4 -5.066,15.117 -2.407,22.119 2.659,7.003 8.779,12.12 16.649,15.4 7.871,3.29 17.681,4.96 28.911,5.3 22.459,0.67 50.707,-4.13 80.017,-14.457 29.31,-10.322 54.14,-24.214 70.85,-38.686 8.35,-7.237 14.7,-14.595 18.51,-21.995 3.82,-7.4 5.09,-15.124 2.43,-22.127 -2.65,-7.002 -8.81,-12.109 -16.68,-15.394 -7.87,-3.284 -17.65,-4.964 -28.88,-5.302 -2.8,-0.084 -5.7,-0.088 -8.68,0 z m 8.58,8.661 c 10.47,0.315 19.29,1.961 25.68,4.626 6.38,2.665 10.15,6.152 11.73,10.317 1.58,4.165 1.03,9.14 -2.07,15.145 -3.09,6.004 -8.72,12.744 -16.51,19.491 -15.58,13.495 -39.63,27.068 -68.07,37.085 -28.44,10.016 -55.872,14.576 -76.814,13.946 -10.471,-0.31 -19.317,-1.951 -25.704,-4.616 -6.386,-2.665 -10.113,-6.136 -11.695,-10.301 -1.581,-4.166 -1.066,-9.157 2.028,-15.161 3.094,-6.004 8.759,-12.752 16.548,-19.499 15.578,-13.494 39.594,-27.061 68.037,-37.077 28.43,-10.017 55.9,-14.588 76.84,-13.956 z m 74.12,2.503 c 130.17,7.452 221.5,50.544 251.12,118.067 14.51,33.1 14.01,69.71 0.38,108.16 -8.37,23.61 -21.75,47.86 -39.6,72.16 -1.52,1.75 -2.96,3.48 -4.52,5.24 l 0.35,0.31 c -10.24,13.42 -21.8,26.84 -34.69,40.15 -75.95,78.52 -196.29,153.43 -342.65,205.61 -146.372,52.17 -291.021,71.71 -406.147,61.24 -115.125,-10.47 -200.042,-50.93 -229.073,-117.13 -14.515,-33.1 -14.009,-69.75 -0.382,-108.2 13.629,-38.45 40.499,-78.57 78.478,-117.83 75.957,-78.52 196.262,-153.43 342.628,-205.603 54.383,-19.387 110,-33.845 165.071,-44.627 -7.889,5.061 -15.172,10.367 -21.588,15.892 -2.107,1.814 -4.103,3.659 -6.042,5.52 -3.019,2.766 -5.818,5.574 -8.301,8.435 -13.985,16.119 -21.103,33.305 -17.961,49.307 0.258,1.316 0.588,2.606 0.978,3.866 3.961,13.41 14.917,23.35 30.262,29.85 -9.882,8.97 -17.32,18.01 -22.054,26.93 -5.616,10.59 -7.431,21.25 -4.434,30.92 3.248,10.48 11.654,18.59 23.164,24.3 11.511,5.71 26.273,9.23 43.464,10.75 34.377,3.04 78.467,-2.03 124.617,-15.75 46.15,-13.71 85.66,-33.49 112.53,-54.74 13.44,-10.62 23.74,-21.61 30.09,-32.65 6.34,-11.03 8.72,-22.4 5.48,-32.875 -3.44,-11.087 -12.78,-19.677 -25.97,-25.571 -11.55,-5.161 -26.22,-8.43 -43.52,-9.711 6.41,-11.322 9.13,-22.866 6.94,-34.014 0,-0.04 0.01,-0.059 -0.03,-0.091 0,-0.084 -0.04,-0.171 -0.04,-0.247 -1.31,-6.675 -4.27,-12.561 -8.57,-17.664 z m 187.27,28.464 c 3.68,1.141 64.48,20.771 91.77,82.933 11.02,25.1 9.59,54.53 -2.9,87.21 -4.97,12.98 -11.76,26.46 -20.11,40.26 1.32,-3.24 2.59,-6.47 3.73,-9.7 14.2,-40.05 14.88,-79.28 -0.62,-114.63 -15.48,-35.285 -45.9,-63.864 -88.35,-84.76 z m 41.53,11.211 c 31.79,11.591 56.76,28.148 76.95,46.096 12.58,11.188 23.77,22.476 32.32,41.666 4.34,9.75 7.97,21.62 10.64,36.53 l -1.25,0.04 c 0,0 0.86,70.96 -45.26,129.91 -12.04,15.38 -27.97,35.45 -49.74,58.47 -11.86,-15.04 -23.81,-30.16 -35.95,-45.48 0.77,-1.03 1.55,-2.07 2.31,-3.1 30.57,-35.24 53.09,-69.66 65.48,-102.04 13.05,-34.11 14.91,-66.2 2.76,-93.88 -14.48,-32.979 -37.92,-54.595 -58.26,-68.195 z m -232.75,20.999 c 18.67,0.955 34.4,4.039 45.61,9.05 11.72,5.239 18.67,12.133 21.16,20.16 2.36,7.633 0.85,16.283 -4.69,25.923 -5.54,9.64 -15.12,19.99 -27.95,30.14 -13.82,10.93 -31.52,21.6 -51.89,31.24 12.52,-6.52 23.7,-13.49 33.05,-20.69 11.57,-8.91 20.48,-18.12 26.03,-27.48 5.56,-9.35 7.77,-19.11 5.03,-28.17 -2.88,-9.472 -10.78,-16.826 -21.84,-21.864 -8.92,-4.063 -20.08,-6.741 -33.09,-8.085 3.17,-3.359 6.04,-6.775 8.58,-10.224 z m -17.07,18.465 c 15.61,0.937 28.7,3.63 37.94,7.837 9.61,4.376 15.17,9.997 17.11,16.401 1.87,6.17 0.57,13.18 -4.17,21.15 -4.73,7.97 -12.9,16.59 -23.86,25.03 -0.98,0.76 -2.09,1.49 -3.11,2.24 2.77,-3.19 5.15,-6.41 6.95,-9.66 4.03,-7.27 5.48,-14.97 2.94,-21.98 -2.67,-7.36 -9.28,-12.74 -18.08,-16.19 -8.05,-3.17 -18.36,-4.71 -30.22,-5.05 -0.98,-2.07 -2.25,-3.946 -3.76,-5.574 5.69,-3.913 11.07,-7.937 15.9,-12.097 0.81,-0.697 1.58,-1.404 2.36,-2.107 z m -26.31,19.448 c 1.94,1.54 3.65,3.35 4.49,5.81 0.04,0.13 0.09,0.26 0.14,0.38 v 0.04 c 0.04,0.12 0.1,0.22 0.13,0.35 l 3.93,16.07 c -0.28,1.73 -1.44,3.9 -3.44,6.29 -2.66,3.19 -6.78,6.78 -12.17,10.28 -1.35,0.88 -2.78,1.75 -4.28,2.61 -6.1,3.47 -13.23,6.79 -20.89,9.8 -7.66,3.01 -15.86,5.69 -24.08,7.88 -4.11,1.1 -8.24,2.08 -12.3,2.91 -12.2,2.5 -23.91,3.74 -33.33,3.27 -6.29,-0.32 -11.5,-1.45 -15.08,-3.15 -2.69,-1.28 -4.39,-2.69 -5.39,-4.48 -0.34,-0.6 -0.59,-1.23 -0.78,-1.91 l -2.14,-8.82 c 0,-0.05 -0.05,-0.09 -0.05,-0.14 l -1.61,-6.62 c 10.44,-0.68 21.36,-2.15 32.59,-4.34 0.92,-0.18 1.84,-0.38 2.77,-0.56 2.7,-0.56 5.39,-1.11 8.13,-1.75 0.58,-0.14 1.17,-0.29 1.75,-0.44 3.34,-0.79 6.69,-1.64 10.05,-2.58 0.28,-0.08 0.56,-0.14 0.84,-0.22 0.12,-0.04 0.24,-0.06 0.35,-0.09 4.18,-1.18 8.28,-2.47 12.35,-3.81 0.46,-0.16 0.94,-0.29 1.4,-0.44 0.72,-0.24 1.4,-0.5 2.12,-0.75 3.1,-1.07 6.18,-2.17 9.21,-3.33 2.64,-1.01 5.21,-2.06 7.78,-3.13 1.16,-0.48 2.32,-0.96 3.46,-1.45 12.32,-5.29 23.72,-11.24 34.04,-17.67 z m 14.56,9.75 c 9.37,0.57 18.4,1.47 24.3,3.79 7.35,2.89 11.49,6.72 13.03,10.99 1.49,4.1 0.85,8.92 -2.37,14.75 -3.23,5.83 -9.07,12.36 -17.06,18.86 -15.97,13 -40.47,25.92 -69.35,35.24 -28.88,9.32 -56.65,13.27 -77.78,12.22 -10.56,-0.53 -19.463,-2.34 -25.881,-5.12 -6.419,-2.78 -10.164,-6.34 -11.656,-10.45 -1.59,-4.38 -0.739,-9.8 3.409,-16.46 3.204,-5.15 9.975,-10.96 16.929,-16.72 l 0.358,1.5 c 0,0.05 0.039,0.1 0.055,0.15 1.515,5.48 5.676,9.54 10.836,11.99 2.57,1.22 5.42,2.12 8.5,2.75 3.08,0.64 6.39,1.01 9.9,1.18 5.26,0.27 10.98,0.07 16.96,-0.52 3.99,-0.39 8.1,-0.96 12.28,-1.69 6.27,-1.08 12.7,-2.51 19.1,-4.22 17.08,-4.55 33.94,-11.08 47.04,-18.54 13.1,-7.46 23.13,-15.51 24.46,-25.94 0.04,-0.3 0.04,-0.59 0,-0.89 0,-0.23 -0.06,-0.46 -0.11,-0.69 z m -199.219,25.56 c 2.179,0.66 4.4,1.27 6.702,1.81 -8.109,7.19 -14.361,14.44 -18.505,21.68 -5.315,9.27 -7.232,18.76 -4.613,27.41 2.749,9.06 9.991,16.03 19.841,20.92 9.849,4.89 22.462,7.89 37.126,9.23 1.942,0.18 4.014,0.25 6.026,0.37 -5.308,-0.09 -10.48,-0.29 -15.36,-0.73 -16.437,-1.45 -30.246,-4.85 -40.349,-9.86 -10.103,-5.01 -16.333,-11.42 -18.7,-19.05 -2.169,-7 -1.044,-15.09 3.814,-24.24 4.574,-8.63 12.92,-18.04 24.018,-27.54 z m -392.126,3.02 18.49,22.72 c -50.082,32.08 -93.095,66.62 -127.377,102.06 -38.615,39.92 -66.245,80.95 -80.442,121 -13.451,37.95 -14.727,75.13 -1.639,109 -4.488,-8.95 -8.9,-19.08 -13.123,-30.54 -15.536,-42.18 -11.405,-103.35 37.414,-200.08 8.193,-16.23 17.773,-33.55 28.592,-51.84 l 1.289,2.92 c 28.114,-12.4 76.954,-38.26 136.796,-75.24 z m 410.149,0.91 c 9.531,1.41 19.922,1.95 30.9,1.68 l 1.389,5.69 c -9.763,7.35 -17.232,14.82 -21.882,22.29 -5.034,8.09 -6.934,16.55 -4.194,24.1 2.231,6.14 7.157,10.84 13.613,14.19 -12.334,-1.42 -22.81,-4.11 -30.518,-7.93 -8.447,-4.2 -13.511,-9.47 -15.384,-15.64 -1.77,-5.84 -0.683,-12.65 3.821,-20.51 4.274,-7.46 11.988,-15.66 22.255,-23.88 z m 387.936,19.74 c -14.68,0.11 -31.72,2.57 -49.59,7.51 -23.84,6.57 -44.64,16.3 -59.38,27.05 -7.37,5.38 -13.26,10.97 -17.21,16.85 -3.94,5.88 -5.99,12.31 -4.76,18.43 1.22,6.13 5.48,10.81 11.24,14.01 5.76,3.2 13.16,5.16 21.8,6.12 17.27,1.92 39.58,-0.25 63.41,-6.83 23.83,-6.58 44.67,-16.32 59.41,-27.07 7.37,-5.37 13.25,-11 17.2,-16.87 3.94,-5.88 5.99,-12.32 4.76,-18.44 -1.22,-6.12 -5.48,-10.81 -11.24,-14.01 -5.76,-3.2 -13.15,-5.13 -21.78,-6.09 -4.32,-0.48 -8.96,-0.7 -13.86,-0.66 z m -0.46,8.91 c 4.6,-0.04 8.91,0.17 12.86,0.61 7.9,0.88 14.37,2.69 18.79,5.15 4.42,2.45 6.64,5.29 7.26,8.42 0.63,3.14 -0.29,6.84 -3.31,11.35 -0.55,0.8 -1.23,1.64 -1.9,2.48 0.14,-1.47 0.09,-2.94 -0.23,-4.4 -1.09,-5.09 -4.86,-8.86 -9.68,-11.35 -4.82,-2.5 -10.88,-3.99 -17.95,-4.72 -14.14,-1.47 -32.35,0.21 -51.77,5.21 -19.41,5 -36.36,12.38 -48.43,20.59 -6.03,4.11 -10.87,8.4 -14.17,12.98 -3.3,4.59 -5.15,9.82 -4.06,14.91 0.79,3.7 3.02,6.68 6.03,9.01 -3.22,-0.89 -5.99,-1.97 -8.23,-3.21 -4.42,-2.46 -6.64,-5.29 -7.26,-8.42 -0.63,-3.14 0.29,-6.84 3.31,-11.35 3.03,-4.5 8.13,-9.52 14.88,-14.44 13.5,-9.84 33.5,-19.31 56.44,-25.64 17.21,-4.75 33.62,-7.06 47.42,-7.18 z m -5.72,15.88 c 3.72,-0.04 7.2,0.12 10.38,0.45 6.36,0.66 11.53,2.05 14.98,3.84 3.44,1.79 4.96,3.7 5.37,5.62 0.41,1.92 -0.16,4.41 -2.52,7.69 -2.36,3.28 -6.44,7.02 -11.87,10.72 -10.86,7.39 -27.09,14.55 -45.67,19.34 -18.59,4.78 -35.99,6.28 -48.73,4.97 -6.36,-0.66 -11.52,-2.03 -14.97,-3.81 -3.44,-1.79 -4.97,-3.73 -5.38,-5.66 -0.41,-1.92 0.17,-4.36 2.53,-7.65 2.36,-3.28 6.43,-7.05 11.86,-10.75 10.87,-7.39 27.07,-14.55 45.65,-19.33 13.93,-3.59 27.23,-5.34 38.37,-5.43 z m -15.57,6.37 c -2.92,0 -5.79,0.69 -8.23,2.1 l -32.81,18.99 c -6.51,3.77 -7.64,11.43 -2.51,16.94 5.13,5.51 14.74,6.94 21.25,3.17 l 32.81,-18.98 c 6.51,-3.77 7.62,-11.42 2.49,-16.93 -3.2,-3.44 -8.15,-5.3 -13,-5.29 z m 1.65,8.67 c 1.09,0.17 2.12,0.69 2.9,1.52 1.55,1.66 1.26,3.73 -0.71,4.87 l -32.8,18.99 c -1.97,1.14 -4.59,0.75 -6.14,-0.92 -1.55,-1.66 -1.24,-3.74 0.73,-4.88 l 32.8,-18.99 c 0.99,-0.57 2.13,-0.75 3.22,-0.59 z m 198.8,1.33 c 0.36,5.73 0.65,11.68 0.8,18.07 1.27,54.32 22.31,137.35 74.2,206.11 84.6,112.1 255.98,302.73 364.96,486.96 54.53,92.15 105.57,199.34 142.94,295.78 37.36,96.44 60.93,182.49 60.93,230.85 0,63.28 -26.04,129.19 -65.81,177.57 15.54,-151.77 -41.84,-325.45 -163.44,-537.59 -114.7,-200.09 -286.67,-434.54 -509.35,-717.22 22.53,-23.69 38.95,-44.3 51.19,-59.95 27.25,-34.82 38.74,-73.49 43.58,-100.58 z m -719.087,32.12 c -16.341,0.12 -35.316,2.86 -55.228,8.36 -26.55,7.33 -49.729,18.19 -66.107,30.15 -8.19,5.97 -14.7,12.21 -19.049,18.7 -4.263,6.35 -6.478,13.24 -5.312,19.78 l -0.179,0.06 9.948,31.53 c -3.802,6.39 -5.485,12.93 -4.224,19.12 1.464,7.18 6.669,12.83 13.768,16.69 7.099,3.87 16.25,6.25 26.97,7.41 21.439,2.33 49.257,-0.33 78.927,-8.35 29.675,-8.02 55.587,-19.89 73.812,-32.91 9.112,-6.51 16.329,-13.3 21.106,-20.28 4.777,-6.97 7.213,-14.38 5.747,-21.56 -1.648,-8.07 -7.923,-14.51 -17.473,-18.62 l -11.648,-30.65 -1.437,-3.79 -0.667,0.2 c -2.246,-3.37 -5.512,-6.15 -9.42,-8.33 -6.347,-3.53 -14.541,-5.7 -24.135,-6.77 -4.797,-0.53 -9.952,-0.78 -15.399,-0.74 z m -0.466,8.92 c 5.151,-0.05 9.981,0.18 14.413,0.67 8.865,0.99 16.122,3.06 21.13,5.84 4.508,2.51 6.994,5.43 7.998,8.66 h 0.064 l 5.933,14.7 8.107,21.32 c 0,0.07 0.318,1.17 -0.147,4.23 -0.48,3.15 -1.867,7.84 -5.817,13.58 -7.901,11.47 -26.292,27.27 -68.297,41.81 -39.686,13.74 -66.608,13.37 -83.471,9.82 -8.431,-1.78 -14.36,-4.36 -18.132,-6.44 -3.231,-1.78 -4.046,-2.62 -4.403,-2.94 l -8.278,-26.57 -5.087,-16.33 -0.761,-2.43 -0.107,-0.34 0.079,-0.04 c -0.506,-3.55 0.612,-7.64 3.86,-12.48 3.431,-5.12 9.145,-10.77 16.711,-16.29 4.415,-3.22 9.507,-6.39 15.057,-9.45 -3.052,1.85 -5.969,3.74 -8.611,5.66 -6.933,5.06 -12.406,10.33 -15.982,15.66 -3.577,5.33 -5.284,10.89 -4.247,16.08 1.036,5.19 4.674,9.26 9.893,12.16 5.219,2.9 12.098,4.73 20.221,5.64 16.246,1.8 37.494,-0.24 60.175,-6.5 22.68,-6.27 42.495,-15.57 56.361,-25.69 6.933,-5.06 12.421,-10.3 15.997,-15.64 3.576,-5.33 5.284,-10.88 4.248,-16.07 -1.037,-5.2 -4.674,-9.26 -9.893,-12.16 -5.219,-2.91 -12.106,-4.76 -20.229,-5.66 -3.896,-0.44 -8.102,-0.64 -12.526,-0.63 1.958,-0.09 3.878,-0.14 5.754,-0.16 z m -6.538,4.61 c 4.484,-0.04 8.693,0.16 12.572,0.6 7.758,0.86 14.188,2.63 18.738,5.16 4.55,2.53 7.136,5.71 7.874,9.41 0.738,3.7 -0.386,7.87 -3.502,12.52 -3.118,4.65 -8.203,9.6 -14.824,14.43 -13.244,9.67 -32.657,18.84 -54.894,24.98 -22.237,6.14 -43.074,8.08 -58.591,6.36 -7.758,-0.86 -14.181,-2.63 -18.73,-5.16 -4.55,-2.53 -7.16,-5.67 -7.898,-9.37 -0.738,-3.7 0.408,-7.91 3.525,-12.56 3.118,-4.64 8.195,-9.59 14.817,-14.43 13.244,-9.66 32.634,-18.83 54.871,-24.98 16.678,-4.6 32.586,-6.85 46.042,-6.96 z m 237.601,3.28 c -16.34,0.13 -35.32,2.86 -55.229,8.36 -26.55,7.33 -49.729,18.19 -66.108,30.15 -8.189,5.97 -14.7,12.21 -19.049,18.69 -4.262,6.36 -6.477,13.25 -5.311,19.79 l -0.179,0.06 9.59,30.4 -0.099,0.15 c -4.615,7.1 -4.789,13.85 -3.611,19.63 1.464,7.18 6.669,12.83 13.768,16.69 7.099,3.87 16.25,6.27 26.969,7.44 21.44,2.33 49.251,-0.33 78.919,-8.35 29.68,-8.03 55.6,-19.92 73.82,-32.94 9.11,-6.51 16.32,-13.3 21.1,-20.27 4.78,-6.98 7.19,-14.39 5.72,-21.57 -1.67,-8.2 -8.26,-14.48 -17.74,-18.57 l -11.49,-30.23 -1.44,-3.8 -0.67,0.21 c -2.24,-3.37 -5.51,-6.16 -9.42,-8.33 -6.34,-3.53 -14.54,-5.71 -24.13,-6.77 -4.8,-0.53 -9.96,-0.78 -15.4,-0.74 z m -0.46,8.92 c 5.15,-0.05 9.98,0.18 14.41,0.67 8.87,0.99 16.13,3.06 21.13,5.84 4.51,2.51 7,5.43 8,8.66 h 0.07 l 5.93,14.7 5.88,15.48 c 0.04,0.07 0.05,0.15 0.08,0.24 l 2.15,5.69 c 0.04,0.15 0.28,1.21 -0.16,4.14 -0.48,3.15 -1.87,7.84 -5.82,13.58 -7.9,11.47 -26.28,27.27 -68.29,41.81 -39.684,13.74 -66.614,13.37 -83.477,9.82 -8.431,-1.78 -14.352,-4.36 -18.124,-6.44 -3.231,-1.78 -4.046,-2.61 -4.403,-2.94 l -8.286,-26.57 -5.087,-16.33 -0.753,-2.43 -0.107,-0.34 0.083,-0.04 c -0.506,-3.55 0.603,-7.64 3.852,-12.48 3.431,-5.12 9.153,-10.77 16.719,-16.29 3.635,-2.65 7.706,-5.27 12.122,-7.83 -1.907,1.23 -3.725,2.48 -5.451,3.74 -6.919,5.05 -12.349,10.31 -15.904,15.61 -3.555,5.3 -5.248,10.79 -4.224,15.92 1.022,5.12 4.611,9.15 9.8,12.03 5.189,2.89 12.037,4.73 20.143,5.63 16.213,1.8 37.476,-0.25 60.136,-6.51 22.661,-6.26 42.441,-15.54 56.281,-25.64 6.92,-5.06 12.36,-10.28 15.91,-15.59 3.56,-5.3 5.25,-10.78 4.23,-15.91 -1.02,-5.13 -4.61,-9.16 -9.8,-12.04 -5.19,-2.89 -12.04,-4.76 -20.14,-5.66 -2.28,-0.25 -4.67,-0.4 -7.13,-0.5 0.08,0 0.16,0 0.24,0 z m -6.38,3.93 c 4.49,-0.04 8.71,0.16 12.59,0.59 7.78,0.86 14.2,2.67 18.78,5.22 4.58,2.54 7.24,5.75 7.99,9.52 0.75,3.77 -0.42,8.01 -3.56,12.69 -3.13,4.68 -8.2,9.66 -14.84,14.5 -13.27,9.69 -32.7,18.82 -54.96,24.97 -22.258,6.15 -43.111,8.14 -58.661,6.42 -7.774,-0.87 -14.219,-2.67 -18.799,-5.21 -4.581,-2.55 -7.24,-5.74 -7.991,-9.5 -0.752,-3.77 0.418,-8.04 3.556,-12.72 3.139,-4.67 8.227,-9.66 14.864,-14.5 13.271,-9.69 32.706,-18.83 54.964,-24.98 16.697,-4.61 32.597,-6.88 46.067,-7 z m -272.594,0.56 c -5.093,0 -9.936,1.15 -14.49,3.01 -3.948,1.61 -10.698,5.42 -16.789,8.93 -6.092,3.51 -11.33,6.64 -11.33,6.64 -1.06,0.64 -1.706,1.79 -1.701,3.03 10e-4,1.46 0.9,2.77 2.26,3.29 l 38.152,14.58 c 0.752,0.29 1.58,0.31 2.345,0.05 0,0 10.049,-3.22 19.957,-7.81 4.954,-2.29 9.876,-4.91 13.683,-7.82 1.903,-1.45 3.56,-2.95 4.783,-4.76 1.224,-1.8 2.068,-4.13 1.585,-6.55 -0.825,-4.13 -3.956,-7.09 -7.277,-7.99 -3.32,-0.91 -6.708,-0.43 -9.838,0.32 -3.076,0.74 -3.642,1.29 -5.81,2.23 -0.202,-0.81 0.001,-1.59 -0.558,-2.32 -1.238,-1.67 -3.132,-2.76 -5.545,-3.46 -3.225,-0.94 -6.371,-1.37 -9.427,-1.37 z m -0.056,7.04 c 2.42,0 4.907,0.36 7.517,1.11 1.402,0.41 1.714,0.77 1.755,0.82 -0.067,0.24 -0.302,0.59 -0.465,0.86 l -30.022,14.92 0.334,0.67 -11.726,-4.48 c 1.949,-1.16 2.268,-1.37 4.901,-2.89 6.019,-3.46 13.081,-7.33 15.91,-8.49 3.917,-1.6 7.763,-2.54 11.796,-2.52 z m 26.644,4.19 c 1.098,-0.06 2.046,-0.01 2.733,0.18 1.375,0.38 1.811,0.58 2.206,2.56 0,0.1 0.063,0.38 -0.497,1.21 -0.56,0.82 -1.67,1.95 -3.2,3.11 -3.059,2.34 -7.682,4.85 -12.386,7.02 -8.878,4.11 -17.069,6.78 -18.078,7.11 l -10.289,-3.93 25.665,-12.75 c 0.04,0 0.056,-0.04 0.084,-0.05 0,0 5.118,-2.71 10.157,-3.91 1.26,-0.31 2.505,-0.48 3.603,-0.54 z m 173.185,9.91 c -3.191,0.15 -5.072,3.65 -3.448,6.41 l 20.253,34.46 c 1.18,2.03 3.782,2.72 5.808,1.53 2.016,-1.19 2.687,-3.79 1.499,-5.81 l -6.011,-10.25 27.26,-16.29 -0.28,-0.47 28.51,0.7 c 2.35,0.06 4.29,-1.79 4.35,-4.14 0.06,-2.34 -1.8,-4.29 -4.14,-4.35 l -73.458,-1.79 z m 7.735,8.67 22.434,0.55 -16.362,9.8 z m -92.728,1.82 c 3.286,2.53 5.013,5.4 5.661,8.58 0.847,4.15 -0.468,9.12 -4.403,14.87 -3.935,5.74 -10.429,12.01 -18.964,18.1 -17.068,12.2 -42.217,23.8 -71.022,31.59 -28.802,7.79 -55.792,10.27 -75.698,8.11 -9.953,-1.08 -18.122,-3.35 -23.739,-6.41 -5.618,-3.05 -8.519,-6.6 -9.365,-10.75 -0.112,-0.54 0.202,-1.26 0.504,-1.98 l 0.404,1.28 0.816,0.79 c 0,0 2.471,2.26 6.958,4.73 4.487,2.47 11.252,5.37 20.547,7.33 18.59,3.91 47.247,4.04 88.138,-10.12 43.108,-14.92 63.254,-31.52 72.607,-45.1 4.677,-6.79 6.614,-12.82 7.284,-17.22 0.223,-1.45 0.262,-2.69 0.262,-3.8 z m 230.464,19.21 c 2.59,1.8 5.47,3.54 5.92,5.74 0.84,4.15 -0.44,9.12 -4.37,14.87 -3.94,5.74 -10.43,11.97 -18.96,18.07 -17.07,12.19 -42.23,23.83 -71.03,31.62 -28.803,7.78 -55.785,10.24 -75.691,8.07 -9.953,-1.08 -18.129,-3.34 -23.747,-6.4 -5.617,-3.06 -8.511,-6.6 -9.358,-10.75 -0.318,-1.56 -0.473,-2.91 -0.512,-4.24 l 1.266,4.01 0.815,0.79 c 0,0 2.472,2.26 6.958,4.73 4.487,2.47 11.253,5.36 20.547,7.32 18.591,3.92 47.247,4.05 88.142,-10.11 43.1,-14.92 63.25,-31.52 72.6,-45.1 4.68,-6.79 6.62,-12.82 7.29,-17.22 0.07,-0.51 0.09,-0.93 0.13,-1.4 z m 281.02,2.12 c 11.93,15.05 23.69,29.94 35.35,44.72 -64.57,66.51 -177.43,155.54 -383.97,229.29 -139.894,49.95 -279.87,80.5 -399.478,88.24 -91.717,5.94 -171.39,-1.7 -229.733,-23.81 -14.193,-7.04 -28.36,-14.31 -42.462,-21.8 l 59.111,-63.05 c 43.421,28.24 103.402,45.65 173.635,52.04 116.757,10.62 262.439,-9.15 409.867,-61.71 147.43,-52.55 268.78,-127.94 346.01,-207.78 11.58,-11.96 22.14,-24.03 31.67,-36.14 z m 40.78,51.6 c 222.22,282.14 393.73,516.04 507.89,715.19 121.67,212.27 178.04,384.9 162.12,534.25 l 7.46,0.78 c -21.31,25.48 -46.46,45.94 -73.61,58.34 -80.38,36.71 -145.41,46.33 -210.83,17.07 -15.32,-6.86 -42.55,-29.07 -74.6,-59.68 -32.05,-30.61 -69.37,-69.69 -106.77,-110.78 -74.82,-82.18 -150.08,-172.47 -184.67,-219.12 -67.08,-90.46 -196.98,-289.12 -205.59,-302.3 3.02,-1.76 6.05,-3.5 9.06,-5.3 19.48,-11.65 38.22,-23.93 53.07,-34.94 14.84,-11.01 25.66,-20.16 30.13,-28 7.83,-13.72 10.36,-33.35 10.63,-52.04 0.27,-18.68 -1.81,-36.15 -4.52,-45.84 -2.79,-9.95 -11.21,-26.75 -22.04,-43.72 -10.83,-16.98 -23.79,-33.76 -36.48,-42.58 -19,-13.21 -43.76,-18.96 -64.9,-21.28 -10.57,-1.15 -20.22,-1.45 -27.85,-1.26 -7.63,0.18 -12.73,0.62 -16.13,1.7 l -135.89,43.31 -0.74,0.73 c 0,0 -6.39,6.31 -13.96,14.32 -5.84,-2.03 -21.66,-7.26 -58.443,-17.78 -25.464,-7.28 -40.74,-5.23 -55.531,-0.67 -14.791,4.56 -29.068,11.22 -55.671,13.98 -80.734,8.39 -211.989,-23.82 -351.038,-81.96 -0.064,-0.09 -0.691,-0.96 -0.691,-0.96 l -0.567,0.43 c -16.49,-6.92 -33.087,-14.2 -49.722,-21.81 51.815,10.92 113.52,13.74 181.572,9.34 120.648,-7.81 261.285,-38.55 401.851,-88.74 206.71,-73.81 320.96,-163.56 386.46,-230.68 z m -909.134,346.13 c 123.689,50.63 240.299,80.3 321.459,78.25 -28.945,14.54 -65.954,23.77 -118.617,37.16 -62.615,15.93 -117.99,14.38 -147.155,-4.46 -15.019,-9.7 -20.061,-17.39 -22.279,-25.27 -2.219,-7.89 -1.28,-16.81 -2.874,-27.98 -1.795,-12.57 -12.135,-29.73 -21.899,-44.83 -3.052,-4.73 -5.938,-8.97 -8.635,-12.87 z m 683.644,21.37 c 6.15,0.05 13.3,0.41 20.91,1.25 20.29,2.22 43.82,7.95 60.83,19.77 10.62,7.38 23.61,23.64 34.11,40.11 10.5,16.47 18.8,33.53 20.99,41.35 2.26,8.08 4.45,25.44 4.19,43.37 -0.26,17.92 -3.07,36.65 -9.45,47.81 -2.62,4.6 -13.24,14.56 -27.76,25.33 -14.52,10.77 -33.08,22.91 -52.36,34.44 -9.34,5.58 -18.83,11 -28.14,16.05 25.63,-40.84 27.28,-107.31 -9.73,-151.4 -28.59,-34.06 -74.9,-50.24 -113.9,-58.24 -26.17,-5.36 -48.97,-6.97 -61.31,-7.46 4.48,-4.62 7.85,-7.96 8.25,-8.35 l 133.86,-42.69 c 0.82,-0.26 6.47,-1.11 13.71,-1.29 1.81,-0.04 3.75,-0.06 5.8,-0.04 z m -169.69,60.92 c 4.14,0.01 32.39,0.28 67.62,7.51 38.03,7.8 82.52,23.79 108.98,55.3 37.03,44.11 31.5,114.98 2.49,150.21 l 2.13,1.75 c -5.78,2.99 -11.45,5.85 -16.84,8.38 -4,1.89 -7.84,3.59 -11.54,5.17 19.84,-16.94 31.55,-41.38 36.32,-66.17 6.65,-34.65 0.52,-70.33 -17.03,-89.53 -32.34,-35.38 -81.54,-47.54 -122.38,-51.13 -30.79,-2.7 -57.02,-0.48 -68.1,0.78 0.71,-1.14 1.53,-2.4 2.59,-3.83 3.33,-4.51 8.13,-10.1 13,-15.46 0.95,-1.04 1.83,-1.96 2.76,-2.97 z m 21.02,28.97 c 8.59,0.04 18.03,0.37 27.96,1.25 39.72,3.48 86.69,15.48 116.7,48.31 14.45,15.8 21.12,49.49 14.88,81.98 -6.24,32.5 -24.68,63.38 -58.35,75.81 l 0.55,1.5 c -1.01,-0.1 -1.63,-0.72 -2.43,-1.82 -0.98,-1.35 -1.47,-2.86 -1.47,-2.86 -0.09,-0.37 -15.04,-62.5 -53.03,-116.38 -10.28,-14.58 -31.4,-35.96 -50.36,-54.9 -9.49,-9.47 -18.41,-18.29 -25.04,-25.12 -2.33,-2.4 -3.92,-4.18 -5.59,-6.02 7.57,-0.79 20.28,-1.81 36.18,-1.75 z"
         fill="#000000"
         id="path41" />
    </g>
    <text
       xml:space="preserve"
       transform="matrix(0.26458333,0,0,0.26458333,13.398105,20.672959)"
       id="text367"
       style="font-size:32px;white-space:pre;shape-inside:url(#rect369);display:inline;fill:#000000"><tspan
         x="537.21289"
         y="536.81913"
         id="tspan2918"><tspan
           style="font-family:monospace;-inkscape-font-specification:monospace"
           id="tspan2916">Grab Specimen</tspan></tspan></text>
    <text
       xml:space="preserve"
       transform="matrix(0.26458333,0,0,0.26458333,29.576397,-9.5510235)"
       id="text367-5"
       style="font-size:32px;white-space:pre;shape-inside:url(#rect369-6);display:inline;fill:#000000"><tspan
         x="537.21289"
         y="536.81913"
         id="tspan2920">UI Select</tspan></text>
    <text
       xml:space="preserve"
       transform="matrix(0.26458333,0,0,0.26458333,-129.23322,-57.53134)"
       id="text367-5-5"
       style="font-size:32px;white-space:pre;shape-inside:url(#rect369-6-5);display:inline;fill:#000000"><tspan
         x="537.21289"
         y="536.81913"
         id="tspan2922">Specimen Menu</tspan></text>
    <text
       xml:space="preserve"
       transform="matrix(0.26458333,0,0,0.26458333,0.48091181,27.165242)"
       id="text494"
       style="font-style:normal;font-variant:normal;font-weight:normal;font-stretch:normal;font-size:32px;font-family:monospace;-inkscape-font-specification:monospace;white-space:pre;shape-inside:url(#rect496);display:inline;fill:#000000"><tspan
         x="42.080078"
         y="125.04297"
         id="tspan2924">Move (Strafe)</tspan></text>
    <text
       xml:space="preserve"
       style="font-style:normal;font-variant:normal;font-weight:normal;font-stretch:normal;font-size:8.46667px;font-family:monospace;-inkscape-font-specification:monospace;fill:#000000;stroke-width:0.264583"
       x="299.47226"
       y="60.344349"
       id="text502"><tspan
         sodipodi:role="line"
         id="tspan500"
         style="stroke-width:0.264583"
         x="299.47226"
         y="60.344349">Move (Turn)</tspan></text>
    <path
       style="fill:#000000;stroke:#009cd8;stroke-width:1.065;stroke-dasharray:none;stroke-opacity:1"
       d="M 153.16263,158.07038 120.23982,133.12266"
       id="path558"
       sodipodi:nodetypes="cc" />
    <path
       style="fill:#000000;stroke:#009cd8;stroke-width:1.065;stroke-dasharray:none;stroke-opacity:1"
       d="m 167.06792,128.21491 -16.76814,-4.08979"
       id="path1237"
       sodipodi:nodetypes="cc" />
    <path
       style="fill:#000000;stroke:#009cd8;stroke-width:1.065;stroke-dasharray:none;stroke-opacity:1"
       d="m 223.51155,159.22359 32.92281,-24.94772"
       id="path558-0"
       sodipodi:nodetypes="cc" />
    <path
       style="fill:#000000;stroke:#009cd8;stroke-width:1.065;stroke-dasharray:none;stroke-opacity:1"
       d="m 209.60626,129.36812 16.76814,-4.08979"
       id="path1237-2"
       sodipodi:nodetypes="cc" />
    <path
       style="fill:#000000;stroke:#009cd8;stroke-width:1.065;stroke-dasharray:none;stroke-opacity:1"
       d="m 79.955392,82.204776 21.266908,8.58856"
       id="path1239" />
    <path
       style="fill:#000000;stroke:#009cd8;stroke-width:1.065;stroke-dasharray:none;stroke-opacity:1"
       d="M 78.932946,59.097465 111.03779,84.86314"
       id="path1241" />
    <path
       style="fill:#000000;stroke:#009cd8;stroke-width:1.065;stroke-dasharray:none;stroke-opacity:1"
       d="M 297.64473,58.983699 265.53989,84.749374"
       id="path1241-3" />
  </g>
</svg>
