# Blender 3.5.1
# www.blender.org
mtllib Chair3.mtl
o Untitled.001
v -1.000000 0.000000 1.100000
v -1.000000 0.000000 0.800000
v -1.000000 -0.000000 -0.800000
v -1.000000 -0.000000 -1.100000
v -1.000000 0.400000 1.100000
v -1.000000 0.400000 0.800000
v -1.000000 0.400000 -0.800000
v -1.000000 0.400000 -1.100000
v 0.800000 0.000000 1.100000
v 0.800000 0.000000 0.800000
v 0.800000 -0.000000 -0.800000
v 0.800000 -0.000000 -1.100000
v 0.800000 0.400000 1.100000
v 0.800000 0.400000 0.800000
v 0.800000 0.400000 -0.800000
v 0.800000 0.400000 -1.100000
v -0.700000 0.000000 1.100000
v -0.700000 0.000000 0.800000
v -0.700000 -0.000000 -0.800000
v -0.700000 -0.000000 -1.100000
v -0.700000 0.400000 1.100000
v -0.700000 0.400000 0.800000
v -0.700000 0.400000 -0.800000
v -0.700000 0.400000 -1.100000
v 1.100000 0.000000 1.100000
v 1.100000 0.000000 0.800000
v 1.100000 -0.000000 -0.800000
v 1.100000 -0.000000 -1.100000
v 1.100000 0.400000 1.100000
v 1.100000 0.400000 0.800000
v 1.100000 0.400000 -0.800000
v 1.100000 0.400000 -1.100000
v -1.000000 0.000000 1.100000
v -1.000000 0.400000 1.100000
v -0.700000 0.000000 1.100000
v -0.700000 0.400000 1.100000
v 0.800000 0.000000 1.100000
v 0.800000 0.400000 1.100000
v 1.100000 0.000000 1.100000
v 1.100000 0.400000 1.100000
v -1.000000 -0.000000 -0.800000
v -1.000000 0.400000 -0.800000
v -0.700000 -0.000000 -0.800000
v -0.700000 0.400000 -0.800000
v 0.800000 -0.000000 -0.800000
v 0.800000 0.400000 -0.800000
v 1.100000 -0.000000 -0.800000
v 1.100000 0.400000 -0.800000
v -1.000000 0.000000 0.800000
v -1.000000 0.400000 0.800000
v -0.700000 0.000000 0.800000
v -0.700000 0.400000 0.800000
v 0.800000 0.000000 0.800000
v 0.800000 0.400000 0.800000
v 1.100000 0.000000 0.800000
v 1.100000 0.400000 0.800000
v -1.000000 -0.000000 -1.100000
v -1.000000 0.400000 -1.100000
v -0.700000 -0.000000 -1.100000
v -0.700000 0.400000 -1.100000
v 0.800000 -0.000000 -1.100000
v 0.800000 0.400000 -1.100000
v 1.100000 -0.000000 -1.100000
v 1.100000 0.400000 -1.100000
v -1.000000 0.000000 1.100000
v -0.700000 0.000000 1.100000
v 0.800000 0.000000 1.100000
v 1.100000 0.000000 1.100000
v -1.000000 0.000000 0.800000
v -0.700000 0.000000 0.800000
v 0.800000 0.000000 0.800000
v 1.100000 0.000000 0.800000
v -1.000000 -0.000000 -0.800000
v -0.700000 -0.000000 -0.800000
v 0.800000 -0.000000 -0.800000
v 1.100000 -0.000000 -0.800000
v -1.000000 -0.000000 -1.100000
v -0.700000 -0.000000 -1.100000
v 0.800000 -0.000000 -1.100000
v 1.100000 -0.000000 -1.100000
v -1.000000 0.400000 1.100000
v -0.700000 0.400000 1.100000
v 0.800000 0.400000 1.100000
v 1.100000 0.400000 1.100000
v -1.000000 0.400000 0.800000
v -0.700000 0.400000 0.800000
v 0.800000 0.400000 0.800000
v 1.100000 0.400000 0.800000
v -1.000000 0.400000 -0.800000
v -0.700000 0.400000 -0.800000
v 0.800000 0.400000 -0.800000
v 1.100000 0.400000 -0.800000
v -1.000000 0.400000 -1.100000
v -0.700000 0.400000 -1.100000
v 0.800000 0.400000 -1.100000
v 1.100000 0.400000 -1.100000
v -1.200000 0.400000 1.300000
v -1.200000 0.400000 -1.300000
v -1.200000 1.800000 1.300000
v -1.200000 1.800000 -1.300000
v 1.300000 0.400000 1.300000
v 1.300000 0.400000 -1.300000
v 1.300000 1.800000 1.300000
v 1.300000 1.800000 -1.300000
v -1.200000 0.400000 1.300000
v -1.200000 1.800000 1.300000
v 1.300000 0.400000 1.300000
v 1.300000 1.800000 1.300000
v -1.200000 0.400000 -1.300000
v -1.200000 1.800000 -1.300000
v 1.300000 0.400000 -1.300000
v 1.300000 1.800000 -1.300000
v -1.200000 0.400000 1.300000
v 1.300000 0.400000 1.300000
v -1.200000 0.400000 -1.300000
v 1.300000 0.400000 -1.300000
v -1.200000 1.800000 1.300000
v 1.300000 1.800000 1.300000
v -1.200000 1.800000 -1.300000
v 1.300000 1.800000 -1.300000
vn -1.0000 -0.0000 -0.0000
vn 1.0000 -0.0000 -0.0000
vn -0.0000 -0.0000 1.0000
vn -0.0000 -0.0000 -1.0000
vn -0.0000 -1.0000 -0.0000
vn -0.0000 1.0000 -0.0000
vt 0.474609 0.500000
vt 0.474609 0.500000
vt 0.474609 0.500000
vt 0.474609 0.500000
vt 0.474609 0.500000
vt 0.474609 0.500000
vt 0.474609 0.500000
vt 0.474609 0.500000
vt 0.474609 0.500000
vt 0.474609 0.500000
vt 0.474609 0.500000
vt 0.474609 0.500000
vt 0.474609 0.500000
vt 0.474609 0.500000
vt 0.474609 0.500000
vt 0.474609 0.500000
vt 0.474609 0.500000
vt 0.474609 0.500000
vt 0.474609 0.500000
vt 0.474609 0.500000
vt 0.474609 0.500000
vt 0.474609 0.500000
vt 0.474609 0.500000
vt 0.474609 0.500000
vt 0.474609 0.500000
vt 0.474609 0.500000
vt 0.474609 0.500000
vt 0.474609 0.500000
vt 0.474609 0.500000
vt 0.474609 0.500000
vt 0.474609 0.500000
vt 0.474609 0.500000
vt 0.474609 0.500000
vt 0.474609 0.500000
vt 0.474609 0.500000
vt 0.474609 0.500000
vt 0.474609 0.500000
vt 0.474609 0.500000
vt 0.474609 0.500000
vt 0.474609 0.500000
vt 0.474609 0.500000
vt 0.474609 0.500000
vt 0.474609 0.500000
vt 0.474609 0.500000
vt 0.474609 0.500000
vt 0.474609 0.500000
vt 0.474609 0.500000
vt 0.474609 0.500000
vt 0.474609 0.500000
vt 0.474609 0.500000
vt 0.474609 0.500000
vt 0.474609 0.500000
vt 0.474609 0.500000
vt 0.474609 0.500000
vt 0.474609 0.500000
vt 0.474609 0.500000
vt 0.474609 0.500000
vt 0.474609 0.500000
vt 0.474609 0.500000
vt 0.474609 0.500000
vt 0.474609 0.500000
vt 0.474609 0.500000
vt 0.474609 0.500000
vt 0.474609 0.500000
vt 0.474609 0.500000
vt 0.474609 0.500000
vt 0.474609 0.500000
vt 0.474609 0.500000
vt 0.474609 0.500000
vt 0.474609 0.500000
vt 0.474609 0.500000
vt 0.474609 0.500000
vt 0.474609 0.500000
vt 0.474609 0.500000
vt 0.474609 0.500000
vt 0.474609 0.500000
vt 0.474609 0.500000
vt 0.474609 0.500000
vt 0.474609 0.500000
vt 0.474609 0.500000
vt 0.474609 0.500000
vt 0.474609 0.500000
vt 0.474609 0.500000
vt 0.474609 0.500000
vt 0.474609 0.500000
vt 0.474609 0.500000
vt 0.474609 0.500000
vt 0.474609 0.500000
vt 0.474609 0.500000
vt 0.474609 0.500000
vt 0.474609 0.500000
vt 0.474609 0.500000
vt 0.474609 0.500000
vt 0.474609 0.500000
vt 0.474609 0.500000
vt 0.474609 0.500000
vt 0.470703 0.500000
vt 0.470703 0.500000
vt 0.470703 0.500000
vt 0.470703 0.500000
vt 0.470703 0.500000
vt 0.470703 0.500000
vt 0.470703 0.500000
vt 0.470703 0.500000
vt 0.470703 0.500000
vt 0.470703 0.500000
vt 0.470703 0.500000
vt 0.470703 0.500000
vt 0.470703 0.500000
vt 0.470703 0.500000
vt 0.470703 0.500000
vt 0.470703 0.500000
vt 0.470703 0.500000
vt 0.470703 0.500000
vt 0.470703 0.500000
vt 0.470703 0.500000
vt 0.470703 0.500000
vt 0.470703 0.500000
vt 0.470703 0.500000
vt 0.470703 0.500000
s 0
usemtl palette.006
f 5/5/1 2/2/1 1/1/1
f 6/6/1 2/2/1 5/5/1
f 7/7/1 4/4/1 3/3/1
f 8/8/1 4/4/1 7/7/1
f 13/13/1 10/10/1 9/9/1
f 14/14/1 10/10/1 13/13/1
f 15/15/1 12/12/1 11/11/1
f 16/16/1 12/12/1 15/15/1
f 17/17/2 18/18/2 21/21/2
f 21/21/2 18/18/2 22/22/2
f 19/19/2 20/20/2 23/23/2
f 23/23/2 20/20/2 24/24/2
f 25/25/2 26/26/2 29/29/2
f 29/29/2 26/26/2 30/30/2
f 27/27/2 28/28/2 31/31/2
f 31/31/2 28/28/2 32/32/2
f 35/35/3 34/34/3 33/33/3
f 36/36/3 34/34/3 35/35/3
f 39/39/3 38/38/3 37/37/3
f 40/40/3 38/38/3 39/39/3
f 43/43/3 42/42/3 41/41/3
f 44/44/3 42/42/3 43/43/3
f 47/47/3 46/46/3 45/45/3
f 48/48/3 46/46/3 47/47/3
f 49/49/4 50/50/4 51/51/4
f 51/51/4 50/50/4 52/52/4
f 53/53/4 54/54/4 55/55/4
f 55/55/4 54/54/4 56/56/4
f 57/57/4 58/58/4 59/59/4
f 59/59/4 58/58/4 60/60/4
f 61/61/4 62/62/4 63/63/4
f 63/63/4 62/62/4 64/64/4
f 69/69/5 66/66/5 65/65/5
f 70/70/5 66/66/5 69/69/5
f 71/71/5 68/68/5 67/67/5
f 72/72/5 68/68/5 71/71/5
f 77/77/5 74/74/5 73/73/5
f 78/78/5 74/74/5 77/77/5
f 79/79/5 76/76/5 75/75/5
f 80/80/5 76/76/5 79/79/5
f 81/81/6 82/82/6 85/85/6
f 85/85/6 82/82/6 86/86/6
f 83/83/6 84/84/6 87/87/6
f 87/87/6 84/84/6 88/88/6
f 89/89/6 90/90/6 93/93/6
f 93/93/6 90/90/6 94/94/6
f 91/91/6 92/92/6 95/95/6
f 95/95/6 92/92/6 96/96/6
usemtl palette.005
f 99/99/1 98/98/1 97/97/1
f 100/100/1 98/98/1 99/99/1
f 101/101/2 102/102/2 103/103/2
f 103/103/2 102/102/2 104/104/2
f 107/107/3 106/106/3 105/105/3
f 108/108/3 106/106/3 107/107/3
f 109/109/4 110/110/4 111/111/4
f 111/111/4 110/110/4 112/112/4
f 115/115/5 114/114/5 113/113/5
f 116/116/5 114/114/5 115/115/5
f 117/117/6 118/118/6 119/119/6
f 119/119/6 118/118/6 120/120/6
