# Blender 3.5.1
# www.blender.org
mtllib cupboard2.mtl
o Untitled.001
v -1.000000 2.000000 -2.500000
v -1.000000 2.000000 -2.600000
v -1.000000 2.100000 -2.500000
v -1.000000 2.100000 -2.600000
v -1.000000 3.800000 -2.500000
v -1.000000 3.800000 -2.600000
v -1.000000 3.900000 -2.500000
v -1.000000 3.900000 -2.600000
v -1.000000 5.600000 -2.500000
v -1.000000 5.600000 -2.600000
v -1.000000 5.700000 -2.500000
v -1.000000 5.700000 -2.600000
v -0.300000 7.300000 -2.500000
v -0.300000 7.300000 -2.600000
v -0.300000 8.200000 -2.500001
v -0.300000 8.200000 -2.600001
v 0.300000 7.300000 -2.500000
v 0.300000 7.300000 -2.600000
v 0.300000 8.200000 -2.500001
v 0.300000 8.200000 -2.600001
v -0.200000 7.300000 -2.500000
v -0.200000 7.300000 -2.600000
v -0.200000 8.200000 -2.500001
v -0.200000 8.200000 -2.600001
v 0.400000 7.300000 -2.500000
v 0.400000 7.300000 -2.600000
v 0.400000 8.200000 -2.500001
v 0.400000 8.200000 -2.600001
v 1.100000 2.000000 -2.500000
v 1.100000 2.000000 -2.600000
v 1.100000 2.100000 -2.500000
v 1.100000 2.100000 -2.600000
v 1.100000 3.800000 -2.500000
v 1.100000 3.800000 -2.600000
v 1.100000 3.900000 -2.500000
v 1.100000 3.900000 -2.600000
v 1.100000 5.600000 -2.500000
v 1.100000 5.600000 -2.600000
v 1.100000 5.700000 -2.500000
v 1.100000 5.700000 -2.600000
v -1.000000 2.000000 -2.500000
v -1.000000 2.100000 -2.500000
v -1.000000 3.800000 -2.500000
v -1.000000 3.900000 -2.500000
v -1.000000 5.600000 -2.500000
v -1.000000 5.700000 -2.500000
v -0.300000 7.300000 -2.500000
v -0.300000 8.200000 -2.500001
v -0.200000 7.300000 -2.500000
v -0.200000 8.200000 -2.500001
v 0.300000 7.300000 -2.500000
v 0.300000 8.200000 -2.500001
v 0.400000 7.300000 -2.500000
v 0.400000 8.200000 -2.500001
v 1.100000 2.000000 -2.500000
v 1.100000 2.100000 -2.500000
v 1.100000 3.800000 -2.500000
v 1.100000 3.900000 -2.500000
v 1.100000 5.600000 -2.500000
v 1.100000 5.700000 -2.500000
v -1.000000 2.000000 -2.600000
v -1.000000 2.100000 -2.600000
v -1.000000 3.800000 -2.600000
v -1.000000 3.900000 -2.600000
v -1.000000 5.600000 -2.600000
v -1.000000 5.700000 -2.600000
v -0.300000 7.300000 -2.600000
v -0.300000 8.200000 -2.600001
v -0.200000 7.300000 -2.600000
v -0.200000 8.200000 -2.600001
v 0.300000 7.300000 -2.600000
v 0.300000 8.200000 -2.600001
v 0.400000 7.300000 -2.600000
v 0.400000 8.200000 -2.600001
v 1.100000 2.000000 -2.600000
v 1.100000 2.100000 -2.600000
v 1.100000 3.800000 -2.600000
v 1.100000 3.900000 -2.600000
v 1.100000 5.600000 -2.600000
v 1.100000 5.700000 -2.600000
v -1.000000 2.000000 -2.500000
v 1.100000 2.000000 -2.500000
v -1.000000 2.000000 -2.600000
v 1.100000 2.000000 -2.600000
v -1.000000 3.800000 -2.500000
v 1.100000 3.800000 -2.500000
v -1.000000 3.800000 -2.600000
v 1.100000 3.800000 -2.600000
v -1.000000 5.600000 -2.500000
v 1.100000 5.600000 -2.500000
v -1.000000 5.600000 -2.600000
v 1.100000 5.600000 -2.600000
v -0.300000 7.300000 -2.500000
v -0.200000 7.300000 -2.500000
v 0.300000 7.300000 -2.500000
v 0.400000 7.300000 -2.500000
v -0.300000 7.300000 -2.600000
v -0.200000 7.300000 -2.600000
v 0.300000 7.300000 -2.600000
v 0.400000 7.300000 -2.600000
v -1.000000 2.100000 -2.500000
v 1.100000 2.100000 -2.500000
v -1.000000 2.100000 -2.600000
v 1.100000 2.100000 -2.600000
v -1.000000 3.900000 -2.500000
v 1.100000 3.900000 -2.500000
v -1.000000 3.900000 -2.600000
v 1.100000 3.900000 -2.600000
v -1.000000 5.700000 -2.500000
v 1.100000 5.700000 -2.500000
v -1.000000 5.700000 -2.600000
v 1.100000 5.700000 -2.600000
v -0.300000 8.200000 -2.500001
v -0.200000 8.200000 -2.500001
v 0.300000 8.200000 -2.500001
v 0.400000 8.200000 -2.500001
v -0.300000 8.200000 -2.600001
v -0.200000 8.200000 -2.600001
v 0.300000 8.200000 -2.600001
v 0.400000 8.200000 -2.600001
v -2.300000 0.000000 2.500000
v -2.300000 -0.000000 -2.400000
v -2.300000 9.700000 2.499999
v -2.300000 9.700000 -2.400001
v -2.100000 0.600000 -2.400000
v -2.100000 0.600000 -2.500000
v -2.100000 2.300000 -2.400000
v -2.100000 2.300000 -2.500000
v -2.100000 2.400000 -2.400000
v -2.100000 2.400000 -2.500000
v -2.100000 4.100000 -2.400000
v -2.100000 4.100000 -2.500000
v -2.100000 4.200000 -2.400000
v -2.100000 4.200000 -2.500000
v -2.100000 5.900000 -2.400001
v -2.100000 5.900000 -2.500000
v -2.100000 6.000000 -2.400001
v -2.100000 6.000000 -2.500000
v -2.100000 9.500000 -2.400001
v -2.100000 9.500000 -2.500001
v 0.100000 6.000000 -2.400001
v 0.100000 6.000000 -2.500000
v 0.100000 9.500000 -2.400001
v 0.100000 9.500000 -2.500001
v 2.200000 0.200000 2.500000
v 2.200000 0.200000 2.400000
v 2.200000 9.500000 2.499999
v 2.200000 9.500000 2.399999
v -2.100000 0.200000 2.500000
v -2.100000 0.200000 2.400000
v -2.100000 9.500000 2.499999
v -2.100000 9.500000 2.399999
v 0.000000 6.000000 -2.400001
v 0.000000 6.000000 -2.500000
v 0.000000 9.500000 -2.400001
v 0.000000 9.500000 -2.500001
v 2.200000 0.600000 -2.400000
v 2.200000 0.600000 -2.500000
v 2.200000 2.300000 -2.400000
v 2.200000 2.300000 -2.500000
v 2.200000 2.400000 -2.400000
v 2.200000 2.400000 -2.500000
v 2.200000 4.100000 -2.400000
v 2.200000 4.100000 -2.500000
v 2.200000 4.200000 -2.400000
v 2.200000 4.200000 -2.500000
v 2.200000 5.900000 -2.400001
v 2.200000 5.900000 -2.500000
v 2.200000 6.000000 -2.400001
v 2.200000 6.000000 -2.500000
v 2.200000 9.500000 -2.400001
v 2.200000 9.500000 -2.500001
v 2.400000 0.000000 2.500000
v 2.400000 -0.000000 -2.400000
v 2.400000 9.700000 2.499999
v 2.400000 9.700000 -2.400001
v -2.300000 0.000000 2.500000
v -2.300000 9.700000 2.499999
v -2.100000 0.200000 2.500000
v -2.100000 9.500000 2.499999
v 2.200000 0.200000 2.500000
v 2.200000 9.500000 2.499999
v 2.400000 0.000000 2.500000
v 2.400000 9.700000 2.499999
v -2.100000 0.200000 2.400000
v -2.100000 9.500000 2.399999
v 2.200000 0.200000 2.400000
v 2.200000 9.500000 2.399999
v -2.300000 -0.000000 -2.400000
v -2.300000 9.700000 -2.400001
v -2.100000 0.600000 -2.400000
v -2.100000 2.300000 -2.400000
v -2.100000 2.400000 -2.400000
v -2.100000 4.100000 -2.400000
v -2.100000 4.200000 -2.400000
v -2.100000 5.900000 -2.400001
v -2.100000 6.000000 -2.400001
v -2.100000 9.500000 -2.400001
v 0.000000 6.000000 -2.400001
v 0.000000 9.500000 -2.400001
v 0.100000 6.000000 -2.400001
v 0.100000 9.500000 -2.400001
v 2.200000 0.600000 -2.400000
v 2.200000 2.300000 -2.400000
v 2.200000 2.400000 -2.400000
v 2.200000 4.100000 -2.400000
v 2.200000 4.200000 -2.400000
v 2.200000 5.900000 -2.400001
v 2.200000 6.000000 -2.400001
v 2.200000 9.500000 -2.400001
v 2.400000 -0.000000 -2.400000
v 2.400000 9.700000 -2.400001
v -2.100000 0.600000 -2.500000
v -2.100000 2.300000 -2.500000
v -2.100000 2.400000 -2.500000
v -2.100000 4.100000 -2.500000
v -2.100000 4.200000 -2.500000
v -2.100000 5.900000 -2.500000
v -2.100000 6.000000 -2.500000
v -2.100000 9.500000 -2.500001
v 0.000000 6.000000 -2.500000
v 0.000000 9.500000 -2.500001
v 0.100000 6.000000 -2.500000
v 0.100000 9.500000 -2.500001
v 2.200000 0.600000 -2.500000
v 2.200000 2.300000 -2.500000
v 2.200000 2.400000 -2.500000
v 2.200000 4.100000 -2.500000
v 2.200000 4.200000 -2.500000
v 2.200000 5.900000 -2.500000
v 2.200000 6.000000 -2.500000
v 2.200000 9.500000 -2.500001
v -2.300000 0.000000 2.500000
v 2.400000 0.000000 2.500000
v -2.300000 -0.000000 -2.400000
v 2.400000 -0.000000 -2.400000
v -2.100000 0.600000 -2.400000
v 2.200000 0.600000 -2.400000
v -2.100000 0.600000 -2.500000
v 2.200000 0.600000 -2.500000
v -2.100000 2.400000 -2.400000
v 2.200000 2.400000 -2.400000
v -2.100000 2.400000 -2.500000
v 2.200000 2.400000 -2.500000
v -2.100000 4.200000 -2.400000
v 2.200000 4.200000 -2.400000
v -2.100000 4.200000 -2.500000
v 2.200000 4.200000 -2.500000
v -2.100000 6.000000 -2.400001
v 0.000000 6.000000 -2.400001
v 0.100000 6.000000 -2.400001
v 2.200000 6.000000 -2.400001
v -2.100000 6.000000 -2.500000
v 0.000000 6.000000 -2.500000
v 0.100000 6.000000 -2.500000
v 2.200000 6.000000 -2.500000
v -2.100000 9.500000 2.499999
v 2.200000 9.500000 2.499999
v -2.100000 9.500000 2.399999
v 2.200000 9.500000 2.399999
v -2.100000 0.200000 2.500000
v 2.200000 0.200000 2.500000
v -2.100000 0.200000 2.400000
v 2.200000 0.200000 2.400000
v -2.100000 2.300000 -2.400000
v 2.200000 2.300000 -2.400000
v -2.100000 2.300000 -2.500000
v 2.200000 2.300000 -2.500000
v -2.100000 4.100000 -2.400000
v 2.200000 4.100000 -2.400000
v -2.100000 4.100000 -2.500000
v 2.200000 4.100000 -2.500000
v -2.100000 5.900000 -2.400001
v 2.200000 5.900000 -2.400001
v -2.100000 5.900000 -2.500000
v 2.200000 5.900000 -2.500000
v -2.100000 9.500000 -2.400001
v 0.000000 9.500000 -2.400001
v 0.100000 9.500000 -2.400001
v 2.200000 9.500000 -2.400001
v -2.100000 9.500000 -2.500001
v 0.000000 9.500000 -2.500001
v 0.100000 9.500000 -2.500001
v 2.200000 9.500000 -2.500001
v -2.300000 9.700000 2.499999
v 2.400000 9.700000 2.499999
v -2.300000 9.700000 -2.400001
v 2.400000 9.700000 -2.400001
vn -1.0000 -0.0000 -0.0000
vn 1.0000 -0.0000 -0.0000
vn -0.0000 -0.0000 1.0000
vn -0.0000 -0.0000 -1.0000
vn -0.0000 -1.0000 -0.0000
vn -0.0000 1.0000 -0.0000
vt 0.146484 0.500000
vt 0.146484 0.500000
vt 0.146484 0.500000
vt 0.146484 0.500000
vt 0.146484 0.500000
vt 0.146484 0.500000
vt 0.146484 0.500000
vt 0.146484 0.500000
vt 0.146484 0.500000
vt 0.146484 0.500000
vt 0.146484 0.500000
vt 0.146484 0.500000
vt 0.146484 0.500000
vt 0.146484 0.500000
vt 0.146484 0.500000
vt 0.146484 0.500000
vt 0.146484 0.500000
vt 0.146484 0.500000
vt 0.146484 0.500000
vt 0.146484 0.500000
vt 0.146484 0.500000
vt 0.146484 0.500000
vt 0.146484 0.500000
vt 0.146484 0.500000
vt 0.146484 0.500000
vt 0.146484 0.500000
vt 0.146484 0.500000
vt 0.146484 0.500000
vt 0.146484 0.500000
vt 0.146484 0.500000
vt 0.146484 0.500000
vt 0.146484 0.500000
vt 0.146484 0.500000
vt 0.146484 0.500000
vt 0.146484 0.500000
vt 0.146484 0.500000
vt 0.146484 0.500000
vt 0.146484 0.500000
vt 0.146484 0.500000
vt 0.146484 0.500000
vt 0.146484 0.500000
vt 0.146484 0.500000
vt 0.146484 0.500000
vt 0.146484 0.500000
vt 0.146484 0.500000
vt 0.146484 0.500000
vt 0.146484 0.500000
vt 0.146484 0.500000
vt 0.146484 0.500000
vt 0.146484 0.500000
vt 0.146484 0.500000
vt 0.146484 0.500000
vt 0.146484 0.500000
vt 0.146484 0.500000
vt 0.146484 0.500000
vt 0.146484 0.500000
vt 0.146484 0.500000
vt 0.146484 0.500000
vt 0.146484 0.500000
vt 0.146484 0.500000
vt 0.146484 0.500000
vt 0.146484 0.500000
vt 0.146484 0.500000
vt 0.146484 0.500000
vt 0.146484 0.500000
vt 0.146484 0.500000
vt 0.146484 0.500000
vt 0.146484 0.500000
vt 0.146484 0.500000
vt 0.146484 0.500000
vt 0.146484 0.500000
vt 0.146484 0.500000
vt 0.146484 0.500000
vt 0.146484 0.500000
vt 0.146484 0.500000
vt 0.146484 0.500000
vt 0.146484 0.500000
vt 0.146484 0.500000
vt 0.146484 0.500000
vt 0.146484 0.500000
vt 0.146484 0.500000
vt 0.146484 0.500000
vt 0.146484 0.500000
vt 0.146484 0.500000
vt 0.146484 0.500000
vt 0.146484 0.500000
vt 0.146484 0.500000
vt 0.146484 0.500000
vt 0.146484 0.500000
vt 0.146484 0.500000
vt 0.146484 0.500000
vt 0.146484 0.500000
vt 0.146484 0.500000
vt 0.146484 0.500000
vt 0.146484 0.500000
vt 0.146484 0.500000
vt 0.146484 0.500000
vt 0.146484 0.500000
vt 0.146484 0.500000
vt 0.146484 0.500000
vt 0.146484 0.500000
vt 0.146484 0.500000
vt 0.146484 0.500000
vt 0.146484 0.500000
vt 0.146484 0.500000
vt 0.146484 0.500000
vt 0.146484 0.500000
vt 0.146484 0.500000
vt 0.146484 0.500000
vt 0.146484 0.500000
vt 0.146484 0.500000
vt 0.146484 0.500000
vt 0.146484 0.500000
vt 0.146484 0.500000
vt 0.146484 0.500000
vt 0.146484 0.500000
vt 0.146484 0.500000
vt 0.146484 0.500000
vt 0.146484 0.500000
vt 0.146484 0.500000
vt 0.845703 0.500000
vt 0.845703 0.500000
vt 0.845703 0.500000
vt 0.845703 0.500000
vt 0.845703 0.500000
vt 0.845703 0.500000
vt 0.845703 0.500000
vt 0.845703 0.500000
vt 0.845703 0.500000
vt 0.845703 0.500000
vt 0.845703 0.500000
vt 0.845703 0.500000
vt 0.845703 0.500000
vt 0.845703 0.500000
vt 0.845703 0.500000
vt 0.845703 0.500000
vt 0.845703 0.500000
vt 0.845703 0.500000
vt 0.845703 0.500000
vt 0.845703 0.500000
vt 0.845703 0.500000
vt 0.845703 0.500000
vt 0.845703 0.500000
vt 0.845703 0.500000
vt 0.845703 0.500000
vt 0.845703 0.500000
vt 0.845703 0.500000
vt 0.845703 0.500000
vt 0.845703 0.500000
vt 0.845703 0.500000
vt 0.845703 0.500000
vt 0.845703 0.500000
vt 0.845703 0.500000
vt 0.845703 0.500000
vt 0.845703 0.500000
vt 0.845703 0.500000
vt 0.845703 0.500000
vt 0.845703 0.500000
vt 0.845703 0.500000
vt 0.845703 0.500000
vt 0.845703 0.500000
vt 0.845703 0.500000
vt 0.845703 0.500000
vt 0.845703 0.500000
vt 0.845703 0.500000
vt 0.845703 0.500000
vt 0.845703 0.500000
vt 0.845703 0.500000
vt 0.845703 0.500000
vt 0.845703 0.500000
vt 0.845703 0.500000
vt 0.845703 0.500000
vt 0.845703 0.500000
vt 0.845703 0.500000
vt 0.845703 0.500000
vt 0.845703 0.500000
vt 0.845703 0.500000
vt 0.845703 0.500000
vt 0.845703 0.500000
vt 0.845703 0.500000
vt 0.845703 0.500000
vt 0.845703 0.500000
vt 0.845703 0.500000
vt 0.845703 0.500000
vt 0.845703 0.500000
vt 0.845703 0.500000
vt 0.845703 0.500000
vt 0.845703 0.500000
vt 0.845703 0.500000
vt 0.845703 0.500000
vt 0.845703 0.500000
vt 0.845703 0.500000
vt 0.845703 0.500000
vt 0.845703 0.500000
vt 0.845703 0.500000
vt 0.845703 0.500000
vt 0.845703 0.500000
vt 0.845703 0.500000
vt 0.845703 0.500000
vt 0.845703 0.500000
vt 0.845703 0.500000
vt 0.845703 0.500000
vt 0.845703 0.500000
vt 0.845703 0.500000
vt 0.845703 0.500000
vt 0.845703 0.500000
vt 0.845703 0.500000
vt 0.845703 0.500000
vt 0.845703 0.500000
vt 0.845703 0.500000
vt 0.845703 0.500000
vt 0.845703 0.500000
vt 0.845703 0.500000
vt 0.845703 0.500000
vt 0.845703 0.500000
vt 0.845703 0.500000
vt 0.845703 0.500000
vt 0.845703 0.500000
vt 0.845703 0.500000
vt 0.845703 0.500000
vt 0.845703 0.500000
vt 0.845703 0.500000
vt 0.845703 0.500000
vt 0.845703 0.500000
vt 0.845703 0.500000
vt 0.845703 0.500000
vt 0.845703 0.500000
vt 0.845703 0.500000
vt 0.845703 0.500000
vt 0.845703 0.500000
vt 0.845703 0.500000
vt 0.845703 0.500000
vt 0.845703 0.500000
vt 0.845703 0.500000
vt 0.845703 0.500000
vt 0.845703 0.500000
vt 0.845703 0.500000
vt 0.845703 0.500000
vt 0.845703 0.500000
vt 0.845703 0.500000
vt 0.845703 0.500000
vt 0.845703 0.500000
vt 0.845703 0.500000
vt 0.845703 0.500000
vt 0.845703 0.500000
vt 0.845703 0.500000
vt 0.845703 0.500000
vt 0.845703 0.500000
vt 0.845703 0.500000
vt 0.845703 0.500000
vt 0.845703 0.500000
vt 0.845703 0.500000
vt 0.845703 0.500000
vt 0.845703 0.500000
vt 0.845703 0.500000
vt 0.845703 0.500000
vt 0.845703 0.500000
vt 0.845703 0.500000
vt 0.845703 0.500000
vt 0.845703 0.500000
vt 0.845703 0.500000
vt 0.845703 0.500000
vt 0.845703 0.500000
vt 0.845703 0.500000
vt 0.845703 0.500000
vt 0.845703 0.500000
vt 0.845703 0.500000
vt 0.845703 0.500000
vt 0.845703 0.500000
vt 0.845703 0.500000
vt 0.845703 0.500000
vt 0.845703 0.500000
vt 0.845703 0.500000
vt 0.845703 0.500000
vt 0.845703 0.500000
vt 0.845703 0.500000
vt 0.845703 0.500000
vt 0.845703 0.500000
vt 0.845703 0.500000
vt 0.845703 0.500000
vt 0.845703 0.500000
vt 0.845703 0.500000
vt 0.845703 0.500000
vt 0.845703 0.500000
vt 0.845703 0.500000
vt 0.845703 0.500000
vt 0.845703 0.500000
vt 0.845703 0.500000
s 0
usemtl palette.003
f 3/3/1 2/2/1 1/1/1
f 4/4/1 2/2/1 3/3/1
f 7/7/1 6/6/1 5/5/1
f 8/8/1 6/6/1 7/7/1
f 11/11/1 10/10/1 9/9/1
f 12/12/1 10/10/1 11/11/1
f 15/15/1 14/14/1 13/13/1
f 16/16/1 14/14/1 15/15/1
f 19/19/1 18/18/1 17/17/1
f 20/20/1 18/18/1 19/19/1
f 21/21/2 22/22/2 23/23/2
f 23/23/2 22/22/2 24/24/2
f 25/25/2 26/26/2 27/27/2
f 27/27/2 26/26/2 28/28/2
f 29/29/2 30/30/2 31/31/2
f 31/31/2 30/30/2 32/32/2
f 33/33/2 34/34/2 35/35/2
f 35/35/2 34/34/2 36/36/2
f 37/37/2 38/38/2 39/39/2
f 39/39/2 38/38/2 40/40/2
f 49/49/3 48/48/3 47/47/3
f 50/50/3 48/48/3 49/49/3
f 53/53/3 52/52/3 51/51/3
f 54/54/3 52/52/3 53/53/3
f 55/55/3 42/42/3 41/41/3
f 56/56/3 42/42/3 55/55/3
f 57/57/3 44/44/3 43/43/3
f 58/58/3 44/44/3 57/57/3
f 59/59/3 46/46/3 45/45/3
f 60/60/3 46/46/3 59/59/3
f 67/67/4 68/68/4 69/69/4
f 69/69/4 68/68/4 70/70/4
f 71/71/4 72/72/4 73/73/4
f 73/73/4 72/72/4 74/74/4
f 61/61/4 62/62/4 75/75/4
f 75/75/4 62/62/4 76/76/4
f 63/63/4 64/64/4 77/77/4
f 77/77/4 64/64/4 78/78/4
f 65/65/4 66/66/4 79/79/4
f 79/79/4 66/66/4 80/80/4
f 83/83/5 82/82/5 81/81/5
f 84/84/5 82/82/5 83/83/5
f 87/87/5 86/86/5 85/85/5
f 88/88/5 86/86/5 87/87/5
f 91/91/5 90/90/5 89/89/5
f 92/92/5 90/90/5 91/91/5
f 97/97/5 94/94/5 93/93/5
f 98/98/5 94/94/5 97/97/5
f 99/99/5 96/96/5 95/95/5
f 100/100/5 96/96/5 99/99/5
f 101/101/6 102/102/6 103/103/6
f 103/103/6 102/102/6 104/104/6
f 105/105/6 106/106/6 107/107/6
f 107/107/6 106/106/6 108/108/6
f 109/109/6 110/110/6 111/111/6
f 111/111/6 110/110/6 112/112/6
f 113/113/6 114/114/6 117/117/6
f 117/117/6 114/114/6 118/118/6
f 115/115/6 116/116/6 119/119/6
f 119/119/6 116/116/6 120/120/6
usemtl palette.002
f 123/123/1 122/122/1 121/121/1
f 124/124/1 122/122/1 123/123/1
f 127/127/1 126/126/1 125/125/1
f 128/128/1 126/126/1 127/127/1
f 131/131/1 130/130/1 129/129/1
f 132/132/1 130/130/1 131/131/1
f 135/135/1 134/134/1 133/133/1
f 136/136/1 134/134/1 135/135/1
f 139/139/1 138/138/1 137/137/1
f 140/140/1 138/138/1 139/139/1
f 143/143/1 142/142/1 141/141/1
f 144/144/1 142/142/1 143/143/1
f 147/147/1 146/146/1 145/145/1
f 148/148/1 146/146/1 147/147/1
f 149/149/2 150/150/2 151/151/2
f 151/151/2 150/150/2 152/152/2
f 153/153/2 154/154/2 155/155/2
f 155/155/2 154/154/2 156/156/2
f 157/157/2 158/158/2 159/159/2
f 159/159/2 158/158/2 160/160/2
f 161/161/2 162/162/2 163/163/2
f 163/163/2 162/162/2 164/164/2
f 165/165/2 166/166/2 167/167/2
f 167/167/2 166/166/2 168/168/2
f 169/169/2 170/170/2 171/171/2
f 171/171/2 170/170/2 172/172/2
f 173/173/2 174/174/2 175/175/2
f 175/175/2 174/174/2 176/176/2
f 179/179/3 178/178/3 177/177/3
f 180/180/3 178/178/3 179/179/3
f 181/181/3 179/179/3 177/177/3
f 182/182/3 178/178/3 180/180/3
f 183/183/3 181/181/3 177/177/3
f 183/183/3 182/182/3 181/181/3
f 184/184/3 178/178/3 182/182/3
f 184/184/3 182/182/3 183/183/3
f 187/187/3 186/186/3 185/185/3
f 188/188/3 186/186/3 187/187/3
f 189/189/4 190/190/4 191/191/4
f 191/191/4 190/190/4 192/192/4
f 192/192/4 190/190/4 193/193/4
f 193/193/4 190/190/4 194/194/4
f 194/194/4 190/190/4 195/195/4
f 195/195/4 190/190/4 196/196/4
f 196/196/4 190/190/4 197/197/4
f 197/197/4 190/190/4 198/198/4
f 196/196/4 197/197/4 199/199/4
f 198/198/4 190/190/4 200/200/4
f 196/196/4 199/199/4 201/201/4
f 199/199/4 200/200/4 201/201/4
f 200/200/4 190/190/4 202/202/4
f 201/201/4 200/200/4 202/202/4
f 189/189/4 191/191/4 203/203/4
f 192/192/4 193/193/4 204/204/4
f 204/204/4 193/193/4 205/205/4
f 194/194/4 195/195/4 206/206/4
f 206/206/4 195/195/4 207/207/4
f 196/196/4 201/201/4 208/208/4
f 208/208/4 201/201/4 209/209/4
f 202/202/4 190/190/4 210/210/4
f 208/208/4 209/209/4 211/211/4
f 209/209/4 210/210/4 211/211/4
f 206/206/4 207/207/4 211/211/4
f 189/189/4 203/203/4 211/211/4
f 207/207/4 208/208/4 211/211/4
f 204/204/4 205/205/4 211/211/4
f 205/205/4 206/206/4 211/211/4
f 203/203/4 204/204/4 211/211/4
f 210/210/4 190/190/4 212/212/4
f 211/211/4 210/210/4 212/212/4
f 219/219/4 220/220/4 221/221/4
f 221/221/4 220/220/4 222/222/4
f 213/213/4 214/214/4 225/225/4
f 225/225/4 214/214/4 226/226/4
f 215/215/4 216/216/4 227/227/4
f 227/227/4 216/216/4 228/228/4
f 217/217/4 218/218/4 229/229/4
f 229/229/4 218/218/4 230/230/4
f 223/223/4 224/224/4 231/231/4
f 231/231/4 224/224/4 232/232/4
f 235/235/5 234/234/5 233/233/5
f 236/236/5 234/234/5 235/235/5
f 239/239/5 238/238/5 237/237/5
f 240/240/5 238/238/5 239/239/5
f 243/243/5 242/242/5 241/241/5
f 244/244/5 242/242/5 243/243/5
f 247/247/5 246/246/5 245/245/5
f 248/248/5 246/246/5 247/247/5
f 253/253/5 250/250/5 249/249/5
f 254/254/5 250/250/5 253/253/5
f 255/255/5 252/252/5 251/251/5
f 256/256/5 252/252/5 255/255/5
f 259/259/5 258/258/5 257/257/5
f 260/260/5 258/258/5 259/259/5
f 261/261/6 262/262/6 263/263/6
f 263/263/6 262/262/6 264/264/6
f 265/265/6 266/266/6 267/267/6
f 267/267/6 266/266/6 268/268/6
f 269/269/6 270/270/6 271/271/6
f 271/271/6 270/270/6 272/272/6
f 273/273/6 274/274/6 275/275/6
f 275/275/6 274/274/6 276/276/6
f 277/277/6 278/278/6 281/281/6
f 281/281/6 278/278/6 282/282/6
f 279/279/6 280/280/6 283/283/6
f 283/283/6 280/280/6 284/284/6
f 285/285/6 286/286/6 287/287/6
f 287/287/6 286/286/6 288/288/6
