# Blender 3.5.1
# www.blender.org
mtllib Monitor.mtl
o Untitled.001
v 0.400000 0.000000 0.500000
v -0.400000 0.000000 0.500000
v 0.400000 0.100000 0.500000
v -0.400000 0.100000 0.500000
v 0.500000 0.000000 0.300000
v 0.400000 0.000000 0.300000
v -0.400000 0.000000 0.300000
v -0.500000 0.000000 0.300000
v 0.500000 0.100000 0.300000
v 0.400000 0.100000 0.300000
v -0.400000 0.100000 0.300000
v -0.500000 0.100000 0.300000
v 0.600000 0.000000 0.100000
v 0.500000 0.000000 0.100000
v -0.500000 0.000000 0.100000
v -0.600000 0.000000 0.100000
v 0.600000 0.100000 0.100000
v 0.500000 0.100000 0.100000
v -0.500000 0.100000 0.100000
v -0.600000 0.100000 0.100000
v 0.500000 1.300000 -0.100000
v -0.500000 1.300000 -0.100000
v 0.600000 1.400000 -0.100000
v 0.500000 1.400000 -0.100000
v -0.500000 1.400000 -0.100000
v -0.600000 1.400000 -0.100000
v 0.600000 2.100000 -0.100000
v 0.500000 2.100000 -0.100000
v -0.500000 2.100000 -0.100000
v -0.600000 2.100000 -0.100000
v 0.500000 2.200000 -0.100000
v -0.500000 2.200000 -0.100000
v 0.100000 0.100000 -0.300000
v -0.100000 0.100000 -0.300000
v 0.100000 1.400000 -0.300000
v -0.100000 1.400000 -0.300000
v 0.500000 1.300000 -0.200000
v -0.500000 1.300000 -0.200000
v 0.600000 1.400000 -0.200000
v 0.500000 1.400000 -0.200000
v 0.300000 1.400000 -0.200000
v -0.300000 1.400000 -0.200000
v -0.500000 1.400000 -0.200000
v -0.600000 1.400000 -0.200000
v 0.300000 1.900000 -0.200000
v -0.300000 1.900000 -0.200000
v 0.600000 2.100000 -0.200000
v 0.500000 2.100000 -0.200000
v -0.500000 2.100000 -0.200000
v -0.600000 2.100000 -0.200000
v 0.500000 2.200000 -0.200000
v -0.500000 2.200000 -0.200000
v 0.300000 1.400000 -0.300000
v 0.100000 1.400000 -0.300000
v -0.100000 1.400000 -0.300000
v -0.300000 1.400000 -0.300000
v 0.100000 1.700000 -0.300000
v -0.100000 1.700000 -0.300000
v 0.300000 1.900000 -0.300000
v -0.300000 1.900000 -0.300000
v 0.100000 0.100000 -0.500000
v -0.100000 0.100000 -0.500000
v 0.100000 1.700000 -0.500000
v -0.100000 1.700000 -0.500000
v 0.600000 -0.000000 -0.600000
v -0.600000 -0.000000 -0.600000
v 0.600000 0.100000 -0.600000
v -0.600000 0.100000 -0.600000
v 0.600000 0.000000 0.100000
v 0.600000 0.100000 0.100000
v 0.600000 1.400000 -0.100000
v 0.600000 2.100000 -0.100000
v 0.600000 1.400000 -0.200000
v 0.600000 2.100000 -0.200000
v 0.600000 -0.000000 -0.600000
v 0.600000 0.100000 -0.600000
v 0.500000 0.000000 0.300000
v 0.500000 0.100000 0.300000
v 0.500000 0.000000 0.100000
v 0.500000 0.100000 0.100000
v 0.500000 1.300000 -0.100000
v 0.500000 1.400000 -0.100000
v 0.500000 2.100000 -0.100000
v 0.500000 2.200000 -0.100000
v 0.500000 1.300000 -0.200000
v 0.500000 1.400000 -0.200000
v 0.500000 2.100000 -0.200000
v 0.500000 2.200000 -0.200000
v 0.400000 0.000000 0.500000
v 0.400000 0.100000 0.500000
v 0.400000 0.000000 0.300000
v 0.400000 0.100000 0.300000
v 0.300000 1.400000 -0.200000
v 0.300000 1.900000 -0.200000
v 0.300000 1.400000 -0.300000
v 0.300000 1.900000 -0.300000
v 0.100000 0.100000 -0.300000
v 0.100000 1.400000 -0.300000
v 0.100000 1.700000 -0.300000
v 0.100000 0.100000 -0.500000
v 0.100000 1.700000 -0.500000
v -0.100000 0.100000 -0.300000
v -0.100000 1.400000 -0.300000
v -0.100000 1.700000 -0.300000
v -0.100000 0.100000 -0.500000
v -0.100000 1.700000 -0.500000
v -0.300000 1.400000 -0.200000
v -0.300000 1.900000 -0.200000
v -0.300000 1.400000 -0.300000
v -0.300000 1.900000 -0.300000
v -0.400000 0.000000 0.500000
v -0.400000 0.100000 0.500000
v -0.400000 0.000000 0.300000
v -0.400000 0.100000 0.300000
v -0.500000 0.000000 0.300000
v -0.500000 0.100000 0.300000
v -0.500000 0.000000 0.100000
v -0.500000 0.100000 0.100000
v -0.500000 1.300000 -0.100000
v -0.500000 1.400000 -0.100000
v -0.500000 2.100000 -0.100000
v -0.500000 2.200000 -0.100000
v -0.500000 1.300000 -0.200000
v -0.500000 1.400000 -0.200000
v -0.500000 2.100000 -0.200000
v -0.500000 2.200000 -0.200000
v -0.600000 0.000000 0.100000
v -0.600000 0.100000 0.100000
v -0.600000 1.400000 -0.100000
v -0.600000 2.100000 -0.100000
v -0.600000 1.400000 -0.200000
v -0.600000 2.100000 -0.200000
v -0.600000 -0.000000 -0.600000
v -0.600000 0.100000 -0.600000
v 0.600000 0.000000 0.100000
v 0.600000 -0.000000 -0.600000
v 0.500000 0.000000 0.300000
v 0.500000 0.000000 0.100000
v 0.400000 0.000000 0.500000
v 0.400000 0.000000 0.300000
v -0.400000 0.000000 0.500000
v -0.400000 0.000000 0.300000
v -0.500000 0.000000 0.300000
v -0.500000 0.000000 0.100000
v -0.600000 0.000000 0.100000
v -0.600000 -0.000000 -0.600000
v 0.500000 1.300000 -0.100000
v 0.500000 1.300000 -0.200000
v -0.500000 1.300000 -0.100000
v -0.500000 1.300000 -0.200000
v 0.600000 1.400000 -0.100000
v 0.600000 1.400000 -0.200000
v 0.500000 1.400000 -0.100000
v 0.500000 1.400000 -0.200000
v 0.300000 1.400000 -0.200000
v 0.300000 1.400000 -0.300000
v 0.100000 1.400000 -0.300000
v -0.100000 1.400000 -0.300000
v -0.300000 1.400000 -0.200000
v -0.300000 1.400000 -0.300000
v -0.500000 1.400000 -0.100000
v -0.500000 1.400000 -0.200000
v -0.600000 1.400000 -0.100000
v -0.600000 1.400000 -0.200000
v 0.600000 0.100000 0.100000
v 0.600000 0.100000 -0.600000
v 0.500000 0.100000 0.300000
v 0.500000 0.100000 0.100000
v 0.400000 0.100000 0.500000
v 0.400000 0.100000 0.300000
v 0.100000 0.100000 -0.300000
v 0.100000 0.100000 -0.500000
v -0.100000 0.100000 -0.300000
v -0.100000 0.100000 -0.500000
v -0.400000 0.100000 0.500000
v -0.400000 0.100000 0.300000
v -0.500000 0.100000 0.300000
v -0.500000 0.100000 0.100000
v -0.600000 0.100000 0.100000
v -0.600000 0.100000 -0.600000
v 0.100000 1.700000 -0.300000
v 0.100000 1.700000 -0.500000
v -0.100000 1.700000 -0.300000
v -0.100000 1.700000 -0.500000
v 0.300000 1.900000 -0.200000
v 0.300000 1.900000 -0.300000
v -0.300000 1.900000 -0.200000
v -0.300000 1.900000 -0.300000
v 0.600000 2.100000 -0.100000
v 0.600000 2.100000 -0.200000
v 0.500000 2.100000 -0.100000
v 0.500000 2.100000 -0.200000
v -0.500000 2.100000 -0.100000
v -0.500000 2.100000 -0.200000
v -0.600000 2.100000 -0.100000
v -0.600000 2.100000 -0.200000
v 0.500000 2.200000 -0.100000
v 0.500000 2.200000 -0.200000
v -0.500000 2.200000 -0.100000
v -0.500000 2.200000 -0.200000
v 2.400000 0.900000 0.100000
v -2.400000 0.900000 0.100000
v 2.400000 3.700000 0.100000
v -2.400000 3.700000 0.100000
v 2.400000 0.900000 -0.100000
v -2.400000 0.900000 -0.100000
v 2.400000 3.700000 -0.100000
v -2.400000 3.700000 -0.100000
v 2.400000 0.900000 0.100000
v 2.400000 3.700000 0.100000
v 2.400000 0.900000 -0.100000
v 2.400000 3.700000 -0.100000
v -2.400000 0.900000 0.100000
v -2.400000 3.700000 0.100000
v -2.400000 0.900000 -0.100000
v -2.400000 3.700000 -0.100000
v 2.400000 0.900000 0.100000
v 2.400000 0.900000 -0.100000
v -2.400000 0.900000 0.100000
v -2.400000 0.900000 -0.100000
v 2.400000 3.700000 0.100000
v 2.400000 3.700000 -0.100000
v -2.400000 3.700000 0.100000
v -2.400000 3.700000 -0.100000
vn -0.0000 -0.0000 1.0000
vn -0.0000 -0.0000 -1.0000
vn 1.0000 -0.0000 -0.0000
vn -1.0000 -0.0000 -0.0000
vn -0.0000 -1.0000 -0.0000
vn -0.0000 1.0000 -0.0000
vt 0.517578 0.500000
vt 0.517578 0.500000
vt 0.517578 0.500000
vt 0.517578 0.500000
vt 0.517578 0.500000
vt 0.517578 0.500000
vt 0.517578 0.500000
vt 0.517578 0.500000
vt 0.517578 0.500000
vt 0.517578 0.500000
vt 0.517578 0.500000
vt 0.517578 0.500000
vt 0.517578 0.500000
vt 0.517578 0.500000
vt 0.517578 0.500000
vt 0.517578 0.500000
vt 0.517578 0.500000
vt 0.517578 0.500000
vt 0.517578 0.500000
vt 0.517578 0.500000
vt 0.517578 0.500000
vt 0.517578 0.500000
vt 0.517578 0.500000
vt 0.517578 0.500000
vt 0.517578 0.500000
vt 0.517578 0.500000
vt 0.517578 0.500000
vt 0.517578 0.500000
vt 0.517578 0.500000
vt 0.517578 0.500000
vt 0.517578 0.500000
vt 0.517578 0.500000
vt 0.517578 0.500000
vt 0.517578 0.500000
vt 0.517578 0.500000
vt 0.517578 0.500000
vt 0.517578 0.500000
vt 0.517578 0.500000
vt 0.517578 0.500000
vt 0.517578 0.500000
vt 0.517578 0.500000
vt 0.517578 0.500000
vt 0.517578 0.500000
vt 0.517578 0.500000
vt 0.517578 0.500000
vt 0.517578 0.500000
vt 0.517578 0.500000
vt 0.517578 0.500000
vt 0.517578 0.500000
vt 0.517578 0.500000
vt 0.517578 0.500000
vt 0.517578 0.500000
vt 0.517578 0.500000
vt 0.517578 0.500000
vt 0.517578 0.500000
vt 0.517578 0.500000
vt 0.517578 0.500000
vt 0.517578 0.500000
vt 0.517578 0.500000
vt 0.517578 0.500000
vt 0.517578 0.500000
vt 0.517578 0.500000
vt 0.517578 0.500000
vt 0.517578 0.500000
vt 0.517578 0.500000
vt 0.517578 0.500000
vt 0.517578 0.500000
vt 0.517578 0.500000
vt 0.517578 0.500000
vt 0.517578 0.500000
vt 0.517578 0.500000
vt 0.517578 0.500000
vt 0.517578 0.500000
vt 0.517578 0.500000
vt 0.517578 0.500000
vt 0.517578 0.500000
vt 0.517578 0.500000
vt 0.517578 0.500000
vt 0.517578 0.500000
vt 0.517578 0.500000
vt 0.517578 0.500000
vt 0.517578 0.500000
vt 0.517578 0.500000
vt 0.517578 0.500000
vt 0.517578 0.500000
vt 0.517578 0.500000
vt 0.517578 0.500000
vt 0.517578 0.500000
vt 0.517578 0.500000
vt 0.517578 0.500000
vt 0.517578 0.500000
vt 0.517578 0.500000
vt 0.517578 0.500000
vt 0.517578 0.500000
vt 0.517578 0.500000
vt 0.517578 0.500000
vt 0.517578 0.500000
vt 0.517578 0.500000
vt 0.517578 0.500000
vt 0.517578 0.500000
vt 0.517578 0.500000
vt 0.517578 0.500000
vt 0.517578 0.500000
vt 0.517578 0.500000
vt 0.517578 0.500000
vt 0.517578 0.500000
vt 0.517578 0.500000
vt 0.517578 0.500000
vt 0.517578 0.500000
vt 0.517578 0.500000
vt 0.517578 0.500000
vt 0.517578 0.500000
vt 0.517578 0.500000
vt 0.517578 0.500000
vt 0.517578 0.500000
vt 0.517578 0.500000
vt 0.517578 0.500000
vt 0.517578 0.500000
vt 0.517578 0.500000
vt 0.517578 0.500000
vt 0.517578 0.500000
vt 0.517578 0.500000
vt 0.517578 0.500000
vt 0.517578 0.500000
vt 0.517578 0.500000
vt 0.517578 0.500000
vt 0.517578 0.500000
vt 0.517578 0.500000
vt 0.517578 0.500000
vt 0.517578 0.500000
vt 0.517578 0.500000
vt 0.517578 0.500000
vt 0.517578 0.500000
vt 0.517578 0.500000
vt 0.517578 0.500000
vt 0.517578 0.500000
vt 0.517578 0.500000
vt 0.517578 0.500000
vt 0.517578 0.500000
vt 0.517578 0.500000
vt 0.517578 0.500000
vt 0.517578 0.500000
vt 0.517578 0.500000
vt 0.517578 0.500000
vt 0.517578 0.500000
vt 0.517578 0.500000
vt 0.517578 0.500000
vt 0.517578 0.500000
vt 0.517578 0.500000
vt 0.517578 0.500000
vt 0.517578 0.500000
vt 0.517578 0.500000
vt 0.517578 0.500000
vt 0.517578 0.500000
vt 0.517578 0.500000
vt 0.517578 0.500000
vt 0.517578 0.500000
vt 0.517578 0.500000
vt 0.517578 0.500000
vt 0.517578 0.500000
vt 0.517578 0.500000
vt 0.517578 0.500000
vt 0.517578 0.500000
vt 0.517578 0.500000
vt 0.517578 0.500000
vt 0.517578 0.500000
vt 0.517578 0.500000
vt 0.517578 0.500000
vt 0.517578 0.500000
vt 0.517578 0.500000
vt 0.517578 0.500000
vt 0.517578 0.500000
vt 0.517578 0.500000
vt 0.517578 0.500000
vt 0.517578 0.500000
vt 0.517578 0.500000
vt 0.517578 0.500000
vt 0.517578 0.500000
vt 0.517578 0.500000
vt 0.517578 0.500000
vt 0.517578 0.500000
vt 0.517578 0.500000
vt 0.517578 0.500000
vt 0.517578 0.500000
vt 0.517578 0.500000
vt 0.517578 0.500000
vt 0.517578 0.500000
vt 0.517578 0.500000
vt 0.517578 0.500000
vt 0.517578 0.500000
vt 0.517578 0.500000
vt 0.517578 0.500000
vt 0.517578 0.500000
vt 0.517578 0.500000
vt 0.517578 0.500000
vt 0.517578 0.500000
vt 0.517578 0.500000
vt 0.517578 0.500000
vt 0.517578 0.500000
vt 0.517578 0.500000
vt 0.291016 0.500000
vt 0.291016 0.500000
vt 0.291016 0.500000
vt 0.291016 0.500000
vt 0.291016 0.500000
vt 0.291016 0.500000
vt 0.291016 0.500000
vt 0.291016 0.500000
vt 0.291016 0.500000
vt 0.291016 0.500000
vt 0.291016 0.500000
vt 0.291016 0.500000
vt 0.291016 0.500000
vt 0.291016 0.500000
vt 0.291016 0.500000
vt 0.291016 0.500000
vt 0.291016 0.500000
vt 0.291016 0.500000
vt 0.291016 0.500000
vt 0.291016 0.500000
vt 0.291016 0.500000
vt 0.291016 0.500000
vt 0.291016 0.500000
vt 0.291016 0.500000
s 0
usemtl palette.014
f 3/3/1 2/2/1 1/1/1
f 4/4/1 2/2/1 3/3/1
f 9/9/1 6/6/1 5/5/1
f 10/10/1 6/6/1 9/9/1
f 11/11/1 8/8/1 7/7/1
f 12/12/1 8/8/1 11/11/1
f 17/17/1 14/14/1 13/13/1
f 18/18/1 14/14/1 17/17/1
f 19/19/1 16/16/1 15/15/1
f 20/20/1 16/16/1 19/19/1
f 24/24/1 22/22/1 21/21/1
f 25/25/1 22/22/1 24/24/1
f 27/27/1 24/24/1 23/23/1
f 27/27/1 26/26/1 25/25/1
f 27/27/1 25/25/1 24/24/1
f 28/28/1 26/26/1 27/27/1
f 29/29/1 26/26/1 28/28/1
f 30/30/1 26/26/1 29/29/1
f 31/31/1 29/29/1 28/28/1
f 32/32/1 29/29/1 31/31/1
f 35/35/1 34/34/1 33/33/1
f 36/36/1 34/34/1 35/35/1
f 37/37/2 38/38/2 40/40/2
f 40/40/2 38/38/2 41/41/2
f 41/41/2 38/38/2 42/42/2
f 42/42/2 38/38/2 43/43/2
f 39/39/2 40/40/2 45/45/2
f 40/40/2 41/41/2 45/45/2
f 43/43/2 44/44/2 46/46/2
f 42/42/2 43/43/2 46/46/2
f 39/39/2 45/45/2 47/47/2
f 45/45/2 46/46/2 47/47/2
f 47/47/2 46/46/2 48/48/2
f 46/46/2 44/44/2 49/49/2
f 48/48/2 46/46/2 49/49/2
f 49/49/2 44/44/2 50/50/2
f 48/48/2 49/49/2 51/51/2
f 51/51/2 49/49/2 52/52/2
f 53/53/2 54/54/2 57/57/2
f 55/55/2 56/56/2 58/58/2
f 53/53/2 57/57/2 59/59/2
f 57/57/2 58/58/2 59/59/2
f 58/58/2 56/56/2 60/60/2
f 59/59/2 58/58/2 60/60/2
f 61/61/2 62/62/2 63/63/2
f 63/63/2 62/62/2 64/64/2
f 65/65/2 66/66/2 67/67/2
f 67/67/2 66/66/2 68/68/2
f 73/73/3 72/72/3 71/71/3
f 74/74/3 72/72/3 73/73/3
f 75/75/3 70/70/3 69/69/3
f 76/76/3 70/70/3 75/75/3
f 79/79/3 78/78/3 77/77/3
f 80/80/3 78/78/3 79/79/3
f 85/85/3 82/82/3 81/81/3
f 86/86/3 82/82/3 85/85/3
f 87/87/3 84/84/3 83/83/3
f 88/88/3 84/84/3 87/87/3
f 91/91/3 90/90/3 89/89/3
f 92/92/3 90/90/3 91/91/3
f 95/95/3 94/94/3 93/93/3
f 96/96/3 94/94/3 95/95/3
f 100/100/3 98/98/3 97/97/3
f 100/100/3 99/99/3 98/98/3
f 101/101/3 99/99/3 100/100/3
f 102/102/4 103/103/4 105/105/4
f 103/103/4 104/104/4 105/105/4
f 105/105/4 104/104/4 106/106/4
f 107/107/4 108/108/4 109/109/4
f 109/109/4 108/108/4 110/110/4
f 111/111/4 112/112/4 113/113/4
f 113/113/4 112/112/4 114/114/4
f 115/115/4 116/116/4 117/117/4
f 117/117/4 116/116/4 118/118/4
f 119/119/4 120/120/4 123/123/4
f 123/123/4 120/120/4 124/124/4
f 121/121/4 122/122/4 125/125/4
f 125/125/4 122/122/4 126/126/4
f 129/129/4 130/130/4 131/131/4
f 131/131/4 130/130/4 132/132/4
f 127/127/4 128/128/4 133/133/4
f 133/133/4 128/128/4 134/134/4
f 138/138/5 136/136/5 135/135/5
f 140/140/5 138/138/5 137/137/5
f 141/141/5 140/140/5 139/139/5
f 142/142/5 138/138/5 140/140/5
f 142/142/5 140/140/5 141/141/5
f 143/143/5 138/138/5 142/142/5
f 144/144/5 136/136/5 138/138/5
f 144/144/5 138/138/5 143/143/5
f 145/145/5 136/136/5 144/144/5
f 146/146/5 136/136/5 145/145/5
f 149/149/5 148/148/5 147/147/5
f 150/150/5 148/148/5 149/149/5
f 153/153/5 152/152/5 151/151/5
f 154/154/5 152/152/5 153/153/5
f 157/157/5 156/156/5 155/155/5
f 158/158/5 157/157/5 155/155/5
f 159/159/5 158/158/5 155/155/5
f 160/160/5 158/158/5 159/159/5
f 163/163/5 162/162/5 161/161/5
f 164/164/5 162/162/5 163/163/5
f 165/165/6 166/166/6 168/168/6
f 167/167/6 168/168/6 170/170/6
f 168/168/6 166/166/6 171/171/6
f 169/169/6 170/170/6 171/171/6
f 170/170/6 168/168/6 171/171/6
f 171/171/6 166/166/6 172/172/6
f 169/169/6 171/171/6 173/173/6
f 172/172/6 166/166/6 174/174/6
f 169/169/6 173/173/6 175/175/6
f 173/173/6 174/174/6 175/175/6
f 175/175/6 174/174/6 176/176/6
f 176/176/6 174/174/6 177/177/6
f 177/177/6 174/174/6 178/178/6
f 178/178/6 174/174/6 179/179/6
f 174/174/6 166/166/6 180/180/6
f 179/179/6 174/174/6 180/180/6
f 181/181/6 182/182/6 183/183/6
f 183/183/6 182/182/6 184/184/6
f 185/185/6 186/186/6 187/187/6
f 187/187/6 186/186/6 188/188/6
f 189/189/6 190/190/6 191/191/6
f 191/191/6 190/190/6 192/192/6
f 193/193/6 194/194/6 195/195/6
f 195/195/6 194/194/6 196/196/6
f 197/197/6 198/198/6 199/199/6
f 199/199/6 198/198/6 200/200/6
usemtl palette.013
f 203/203/1 202/202/1 201/201/1
f 204/204/1 202/202/1 203/203/1
f 205/205/2 206/206/2 207/207/2
f 207/207/2 206/206/2 208/208/2
f 211/211/3 210/210/3 209/209/3
f 212/212/3 210/210/3 211/211/3
f 213/213/4 214/214/4 215/215/4
f 215/215/4 214/214/4 216/216/4
f 219/219/5 218/218/5 217/217/5
f 220/220/5 218/218/5 219/219/5
f 221/221/6 222/222/6 223/223/6
f 223/223/6 222/222/6 224/224/6
